<svg id="block" xmlns="http://www.w3.org/2000/svg"  width="20" height="20" viewBox="0 0 20 20" fill="none"><path d="M0 4C0 1.79086 1.79086 0 4 0H16C18.2091 0 20 1.79086 20 4V16C20 18.2091 18.2091 20 16 20H4C1.79086 20 0 18.2091 0 16V4Z" fill="currentColor"></path><rect width="16" height="16" transform="translate(2 2)" fill="currentColor"></rect><path d="M16.0007 11.332H11.334V15.9987H16.0007V11.332Z" stroke="white" stroke-width="1.5" stroke-linecap="round" stroke-linejoin="round"></path><path d="M8.66667 11.332H4V15.9987H8.66667V11.332Z" stroke="white" stroke-width="1.5" stroke-linecap="round" stroke-linejoin="round"></path><path d="M16.0007 4H11.334V8.66667H16.0007V4Z" stroke="white" stroke-width="1.5" stroke-linecap="round" stroke-linejoin="round"></path><path d="M8.66667 4H4V8.66667H8.66667V4Z" stroke="white" stroke-width="1.5" stroke-linecap="round" stroke-linejoin="round"></path></svg>