<svg id="wallet" class="wallet" width="32" height="32" fill="none" xmlns="http://www.w3.org/2000/svg"><path d="M22 23V12h8v8a3 3 0 0 1-3 3h-5z" fill="#fff" stroke="#7349F2" stroke-width="2" stroke-linecap="round" stroke-linejoin="round"></path><path fill-rule="evenodd" clip-rule="evenodd" d="M2 5.775v15.097a3 3 0 0 0 2.009 2.831l14 4.9A3 3 0 0 0 22 25.772V11.829a3 3 0 0 0-2.051-2.846L4.632 3.877A2 2 0 0 0 2 5.775zM16 20a2 2 0 1 0 0-4 2 2 0 0 0 0 4z" fill="#fff"></path><path fill-rule="evenodd" clip-rule="evenodd" d="M2 5.775v15.097a3 3 0 0 0 2.009 2.831l14 4.9A3 3 0 0 0 22 25.772V11.829a3 3 0 0 0-2.051-2.846L4.632 3.877A2 2 0 0 0 2 5.775zM16 20a2 2 0 1 0 0-4 2 2 0 0 0 0 4z" fill="#5322E5" fill-opacity=".36"></path><path d="M2.241 4.82a2.001 2.001 0 0 1 2.391-.943L19.95 8.983A3 3 0 0 1 22 11.829V12h8V6a3 3 0 0 0-3-3H5a3 3 0 0 0-2.759 1.82z" fill="#fff"></path><path d="M2.241 4.82a2.001 2.001 0 0 1 2.391-.943L19.95 8.983A3 3 0 0 1 22 11.829V12h8V6a3 3 0 0 0-3-3H5a3 3 0 0 0-2.759 1.82z" fill="#5322E5" fill-opacity=".36"></path><path d="M22 11.829v13.943a3 3 0 0 1-3.991 2.831l-14-4.9A3 3 0 0 1 2 20.872V5.775a2 2 0 0 1 2.632-1.898M22 11.83a3 3 0 0 0-2.051-2.846L4.632 3.877M22 11.83V12h8V6a3 3 0 0 0-3-3H5a3 3 0 0 0-2.759 1.82 2.001 2.001 0 0 1 2.391-.943M18 18a2 2 0 1 1-4 0 2 2 0 0 1 4 0z" stroke="#7349F2" stroke-width="2" stroke-linecap="round" stroke-linejoin="round"></path></svg>
