<svg id="exp" width="32" height="32" fill="none" xmlns="http://www.w3.org/2000/svg"><path fill-rule="evenodd" clip-rule="evenodd" d="M30.49 18.778 26.23 6.532a5.26 5.26 0 0 0-10.23 1.729A5.26 5.26 0 0 0 5.772 6.53L1.509 18.78a7.503 7.503 0 0 1 14.475 3.218L16 22l.016-.003a7.5 7.5 0 0 1 14.474-3.22z" fill="#F5A250" fill-opacity=".36"></path><path d="m26.229 6.532-.945.328.945-.328zm4.262 12.246-.932.363a1 1 0 0 0 1.876-.692l-.944.329zM15 8.26a1 1 0 1 0 2 0h-2zM5.77 6.53l.945.33-.944-.33zM1.51 18.78l-.945-.329a1 1 0 0 0 1.877.692l-.932-.363zm14.475 3.218-.998-.066a1 1 0 0 0 .799 1.046l.199-.98zM16 22l-.2.98a.998.998 0 0 0 .399 0l-.2-.98zm.016-.003.199.98a1 1 0 0 0 .799-1.046l-.998.066zM15 22a1 1 0 1 0 2 0h-2zm2-13.74a1 1 0 1 0-2 0h2zm8.284-1.4 4.262 12.246 1.889-.657-4.262-12.246-1.889.657zM21.261 4a4.26 4.26 0 0 1 4.023 2.86l1.89-.657A6.26 6.26 0 0 0 21.26 2v2zM17 8.26A4.26 4.26 0 0 1 21.26 4V2A6.26 6.26 0 0 0 15 8.26h2zM10.74 4A4.26 4.26 0 0 1 15 8.26h2A6.26 6.26 0 0 0 10.74 2v2zM6.714 6.86A4.26 4.26 0 0 1 10.74 4V2a6.26 6.26 0 0 0-5.913 4.203l1.89.657zM2.453 19.108 6.715 6.86l-1.889-.657L.564 18.45l1.89.658zM8.5 13a8.503 8.503 0 0 0-7.923 5.416l1.864.726A6.503 6.503 0 0 1 8.5 15v-2zm8.5 8.5A8.5 8.5 0 0 0 8.5 13v2a6.5 6.5 0 0 1 6.5 6.5h2zm-.018.562c.012-.186.018-.373.018-.562h-2c0 .145-.005.289-.014.431l1.996.131zm-.783-1.042-.016-.003-.398 1.96.016.003.398-1.96zm-.382-.003-.016.003.398 1.96.016-.003-.398-1.96zM15 21.5c0 .189.006.376.018.562l1.996-.13A6.626 6.626 0 0 1 17 21.5h-2zm8.5-8.5a8.5 8.5 0 0 0-8.5 8.5h2a6.5 6.5 0 0 1 6.5-6.5v-2zm7.922 5.415A8.503 8.503 0 0 0 23.5 13v2a6.503 6.503 0 0 1 6.059 4.14l1.863-.726zM17 22V8.26h-2V22h2z" fill="#F5A250"></path><path d="M8.5 29a7.5 7.5 0 0 0 7.5-7.5 7.5 7.5 0 1 0 15 0 7.5 7.5 0 0 0-15 0A7.5 7.5 0 1 0 8.5 29z" fill="#fff"></path><path d="M8.5 17a1 1 0 1 0 0 2v-2zm2.5 4.5a1 1 0 1 0 2 0h-2zM23.5 17a1 1 0 1 0 0 2v-2zm2.5 4.5a1 1 0 1 0 2 0h-2zm-11 0A6.5 6.5 0 0 1 8.5 28v2a8.5 8.5 0 0 0 8.5-8.5h-2zm8.5 6.5a6.5 6.5 0 0 1-6.5-6.5h-2a8.5 8.5 0 0 0 8.5 8.5v-2zm6.5-6.5a6.5 6.5 0 0 1-6.5 6.5v2a8.5 8.5 0 0 0 8.5-8.5h-2zM23.5 15a6.5 6.5 0 0 1 6.5 6.5h2a8.5 8.5 0 0 0-8.5-8.5v2zM17 21.5a6.5 6.5 0 0 1 6.5-6.5v-2a8.5 8.5 0 0 0-8.5 8.5h2zM8.5 15a6.5 6.5 0 0 1 6.5 6.5h2A8.5 8.5 0 0 0 8.5 13v2zM2 21.5A6.5 6.5 0 0 1 8.5 15v-2A8.5 8.5 0 0 0 0 21.5h2zM8.5 28A6.5 6.5 0 0 1 2 21.5H0A8.5 8.5 0 0 0 8.5 30v-2zm0-9a2.5 2.5 0 0 1 2.5 2.5h2A4.5 4.5 0 0 0 8.5 17v2zm15 0a2.5 2.5 0 0 1 2.5 2.5h2a4.5 4.5 0 0 0-4.5-4.5v2z" fill="#F5A250"></path></svg>