<svg id="ex" width="32" height="32" fill="none" xmlns="http://www.w3.org/2000/svg"><path d="m12.5 13-.53-.848.53.848zM2 23H1v3l1.8-2.4L2 23zm11.227-10.455.531.847-.531-.847zm.997-.624.528.849.786-.489-.427-.821-.887.46zm3.47-1.984-.846.532.475.756.805-.387-.433-.9zM30 11.5l-.468.884L31 13.16v-1.66h-1zm-.327-7.862.891-.454-.891.454zm-1.311-1.311-.454.891.454-.891zm-24.724 0 .454.891-.454-.891zM2.327 3.638l.891.454-.891-.454zm9.643 8.514C7.827 14.742 3.241 19.68 1.2 22.4l1.6 1.2c1.959-2.612 6.373-7.34 10.23-9.752l-1.06-1.696zm.726-.454-.726.454 1.06 1.696.728-.456-1.062-1.694zm1-.626c-.323.201-.657.41-1 .626l1.062 1.694.995-.622-1.057-1.698zm1.415.388A.991.991 0 0 1 15 11h-2c0 .496.121.967.337 1.382l1.774-.922zM15 11a1 1 0 0 1 1-1V8a3 3 0 0 0-3 3h2zm1-1c.356 0 .67.185.848.47l1.693-1.065A2.998 2.998 0 0 0 16 8v2zm14.468.616c-3.012-1.594-5.342-2.478-7.424-2.707-2.127-.234-3.905.224-5.783 1.127l.867 1.802c1.64-.788 3.039-1.123 4.698-.94 1.704.187 3.767.93 6.706 2.486l.936-1.768zM29 6.8v4.7h2V6.8h-2zm-.218-2.708c.08.156.145.38.18.819C29 5.361 29 5.943 29 6.8h2c0-.824 0-1.501-.044-2.052-.046-.562-.145-1.079-.392-1.564l-1.782.908zm-.874-.874a2 2 0 0 1 .874.874l1.782-.908a4 4 0 0 0-1.748-1.748l-.908 1.782zM25.2 3c.857 0 1.439 0 1.889.038.438.035.663.1.819.18l.908-1.782c-.485-.247-1.002-.346-1.564-.392C26.702 1 26.024 1 25.2 1v2zM6.8 3h18.4V1H6.8v2zm-2.708.218c.156-.08.38-.145.819-.18C5.361 3 5.943 3 6.8 3V1c-.824 0-1.501 0-2.052.044-.562.046-1.079.145-1.564.392l.908 1.782zm-.874.874a2 2 0 0 1 .874-.874l-.908-1.782a4 4 0 0 0-1.748 1.748l1.782.908zM3 6.8c0-.857 0-1.439.038-1.889.035-.438.1-.663.18-.819l-1.782-.908c-.247.485-.346 1.002-.392 1.564C1 5.298 1 5.976 1 6.8h2zM3 23V6.8H1V23h2z" fill="#0C6CF2"></path><path fill-rule="evenodd" clip-rule="evenodd" d="M2 23c2-2.667 6.5-7.5 10.5-10l.727-.456.997-.624a2 2 0 1 0 3.47-1.984C21.214 8.246 24.05 8.35 30 11.5v13.7c0 1.68 0 2.52-.327 3.162a3 3 0 0 1-1.311 1.311c-.642.327-1.482.327-3.162.327H6.8c-1.68 0-2.52 0-3.162-.327a3 3 0 0 1-1.311-1.311C2 27.719 2 26.879 2 25.199v-2.2z" fill="#0C6CF2" fill-opacity=".36"></path><path d="m12.5 13-.53-.849.53.848zM2 23l-.8-.6-.2.266v.333h1zm11.227-10.456.531.847-.531-.847zm.997-.624.887-.461-.498-.959-.917.571.528.849zm3.47-1.984-.433-.901-1.01.485.597.948.847-.532zM30 11.5h1v-.602l-.532-.282L30 11.5zm-.327 16.862-.891-.454.891.454zm-1.311 1.311-.454-.891.454.891zm-24.724 0-.454.891.454-.891zm-1.311-1.311.891-.454-.891.454zm9.643-16.21C7.827 14.741 3.241 19.678 1.2 22.4l1.6 1.2c1.959-2.612 6.373-7.34 10.23-9.752l-1.06-1.696zm.726-.454-.726.454 1.06 1.696c.25-.155.492-.308.728-.456l-1.062-1.694zm1-.626c-.323.201-.657.41-1 .626l1.062 1.694.995-.622-1.057-1.698zm2.304.928a1 1 0 0 1-.889-.54l-1.774.922A3 3 0 0 0 16 14v-2zm1-1a1 1 0 0 1-1 1v2a3 3 0 0 0 3-3h-2zm-.152-.53a.99.99 0 0 1 .152.53h2a2.99 2.99 0 0 0-.459-1.595l-1.693 1.064zm13.62.146c-3.012-1.594-5.342-2.478-7.424-2.707-2.126-.234-3.905.224-5.783 1.127l.867 1.803c1.64-.789 3.039-1.124 4.698-.942 1.704.188 3.767.931 6.706 2.487l.936-1.768zM31 25.2v-13.7h-2v13.7h2zm-.436 3.616c.247-.485.346-1.002.392-1.564.045-.55.044-1.228.044-2.052h-2c0 .857 0 1.439-.038 1.889-.035.438-.1.663-.18.819l1.782.908zm-1.748 1.748a4 4 0 0 0 1.748-1.748l-1.782-.908a2 2 0 0 1-.874.874l.908 1.782zm-3.616.436c.824 0 1.501 0 2.052-.044.562-.046 1.079-.145 1.564-.392l-.908-1.782c-.156.08-.38.145-.819.18-.45.037-1.032.038-1.889.038v2zm-18.4 0h18.4v-2H6.8v2zm-3.616-.436c.485.247 1.002.346 1.564.392.55.045 1.228.044 2.052.044v-2c-.857 0-1.439 0-1.889-.037-.438-.036-.663-.101-.819-.181l-.908 1.782zm-1.748-1.748a4 4 0 0 0 1.748 1.748l.908-1.782a2 2 0 0 1-.874-.874l-1.782.908zM1 25.199c0 .824 0 1.501.044 2.052.046.562.145 1.079.392 1.564l1.782-.908c-.08-.156-.145-.38-.18-.819C3 26.638 3 26.056 3 25.199H1zm0-2.2v2.2h2v-2.2H1z" fill="#0C6CF2"></path><path d="M16 16v14m-7-8v8m7-28v4m7 8v16M6.8 30h18.4c1.68 0 2.52 0 3.162-.327a3 3 0 0 0 1.311-1.311C30 27.72 30 26.88 30 25.2V6.8c0-1.68 0-2.52-.327-3.162a3 3 0 0 0-1.311-1.311C27.72 2 26.88 2 25.2 2H6.8c-1.68 0-2.52 0-3.162.327a3 3 0 0 0-1.311 1.311C2 4.28 2 5.12 2 6.8v18.4c0 1.68 0 2.52.327 3.162a3 3 0 0 0 1.311 1.311C4.28 30 5.12 30 6.8 30zM18 11a2 2 0 1 1-4 0 2 2 0 0 1 4 0z" stroke="#0C6CF2" stroke-width="2" stroke-linecap="round"></path></svg>