<svg id="pay" width="32" height="32" viewBox="0 0 32 32" fill="none" xmlns="http://www.w3.org/2000/svg"><rect x="0.5" y="10" width="27" height="19" rx="3" transform="rotate(-15 0.5 10)" fill="#06D6A0" fill-opacity="0.36" stroke="#06D6A0" stroke-width="2"></rect><path d="M17.94 22.9267C20.874 22.1405 22.4414 18.476 21.4408 14.7417C20.4402 11.0074 17.2506 8.61754 14.3165 9.40372C11.3824 10.1899 9.81505 13.8544 10.8156 17.5887C11.8162 21.323 15.0059 23.7129 17.94 22.9267Z" fill="white"></path><path d="M21 29.6969C24.866 29.6969 28 26.5629 28 22.6969C28 18.831 24.866 15.6969 21 15.6969C17.134 15.6969 14 18.831 14 22.6969C14 26.5629 17.134 29.6969 21 29.6969Z" fill="white" stroke="#06D6A0" stroke-width="2"></path><path fill-rule="evenodd" clip-rule="evenodd" d="M21.596 18.6508V19.4143C21.4365 19.3937 21.2716 19.3834 21.1011 19.3834C20.8574 19.3834 20.6238 19.4063 20.4 19.452V18.6508H19.5029L19.5029 19.7876C19.0487 20.0462 18.6873 20.4201 18.4188 20.9093C18.1448 21.4084 18.0078 22.0169 18.0078 22.7347C18.0078 23.4504 18.1427 24.0578 18.4124 24.5569C18.6798 25.0518 19.0434 25.4297 19.5029 25.6907L19.5029 26.7992H20.4V26.0195C20.6232 26.0638 20.8568 26.086 21.1011 26.086C21.2736 26.086 21.4386 26.0759 21.596 26.0558V26.7992H22.493V25.7959C22.7556 25.6721 22.9839 25.5182 23.1781 25.3342C23.4202 25.1027 23.6103 24.8468 23.7483 24.5664C23.8885 24.2861 23.9724 24.0015 24 23.7127L22.4072 23.7031C22.3796 23.8603 22.3297 24.0015 22.2575 24.1268C22.1874 24.25 22.0971 24.3551 21.9867 24.4422C21.8784 24.5272 21.752 24.5919 21.6076 24.6365C21.4653 24.6811 21.3071 24.7034 21.1329 24.7034C20.8229 24.7034 20.5542 24.6302 20.327 24.4836C20.1018 24.335 19.9266 24.1151 19.8013 23.8242C19.6781 23.5311 19.6166 23.1679 19.6166 22.7347C19.6166 22.3184 19.6771 21.9638 19.7981 21.6707C19.9213 21.3776 20.0965 21.1536 20.3238 20.9985C20.5531 20.8435 20.826 20.766 21.1425 20.766C21.3209 20.766 21.4833 20.7915 21.6299 20.8424C21.7785 20.8913 21.907 20.9624 22.0153 21.0559C22.1237 21.1493 22.2107 21.2619 22.2766 21.3935C22.3424 21.5252 22.3859 21.6728 22.4072 21.8363H24C23.9618 21.4456 23.863 21.0983 23.7037 20.7946C23.5445 20.4909 23.3374 20.235 23.0825 20.0269C22.9055 19.8809 22.709 19.7594 22.493 19.6625V18.6508H21.596Z" fill="#06D6A0"></path></svg>
