<svg width="0" height="0" class="hidden">
  <symbol id="app-store" xmlns="http://www.w3.org/2000/svg" fill="none" viewBox="0 0 156 52">
    <g>
      <path d="M143.577 0.000169H12.4299C11.9518 0.000169 11.4795 0.000169 11.0027 0.002769C10.6036 0.005369 10.2077 0.012922 9.80475 0.019279C8.92936 0.0295513 8.05604 0.106348 7.19236 0.249002C6.3299 0.394761 5.49446 0.669559 4.71428 1.0641C3.93507 1.46198 3.22307 1.97899 2.60413 2.59636C1.98194 3.212 1.4633 3.92359 1.06815 4.70378C0.671901 5.48241 0.397144 6.31679 0.253364 7.17809C0.108217 8.03831 0.0301122 8.90845 0.0197503 9.78069C0.00765242 10.1793 0.00637485 10.5792 0 10.9778V41.0264C0.00637485 41.43 0.00765242 41.821 0.0197503 42.2248C0.0301154 43.097 0.10822 43.9671 0.253364 44.8273C0.396747 45.6891 0.67152 46.524 1.06815 47.3029C1.46312 48.0805 1.98184 48.7893 2.60413 49.4015C3.22072 50.0216 3.93318 50.5389 4.71428 50.9338C5.49445 51.3294 6.3298 51.6058 7.19236 51.7538C8.05619 51.8953 8.92942 51.9722 9.80475 51.9837C10.2077 51.9925 10.6036 51.9976 11.0027 51.9976C11.4795 52.0002 11.9519 52.0002 12.4299 52.0002H143.577C144.046 52.0002 144.522 52.0002 144.99 51.9976C145.388 51.9976 145.795 51.9925 146.192 51.9837C147.066 51.9728 147.937 51.8959 148.799 51.7538C149.665 51.6048 150.503 51.3284 151.287 50.9338C152.067 50.5387 152.779 50.0214 153.395 49.4015C154.016 48.7869 154.536 48.0787 154.936 47.3029C155.329 46.5234 155.602 45.6886 155.743 44.8273C155.888 43.967 155.969 43.0971 155.985 42.2248C155.99 41.821 155.99 41.43 155.99 41.0264C156 40.5541 156 40.0844 156 39.6044V12.3971C156 11.9211 156 11.4488 155.99 10.9778C155.99 10.5792 155.99 10.1793 155.985 9.78064C155.969 8.90832 155.888 8.03838 155.743 7.17804C155.601 6.31724 155.329 5.48292 154.936 4.70373C154.131 3.13992 152.855 1.867 151.287 1.06398C150.503 0.670407 149.665 0.395682 148.799 0.248885C147.938 0.105603 147.066 0.0287791 146.192 0.019097C145.795 0.012753 145.388 0.005135 144.99 0.0026C144.522 0 144.046 0 143.577 0V0.000169Z" fill="#B1B8C7"></path>
      <path d="M11.1502 50.6972C10.7538 50.6972 10.3671 50.6922 9.9738 50.6834C9.15915 50.6729 8.34641 50.6025 7.54223 50.4728C6.79238 50.3446 6.06597 50.1061 5.38697 49.7652C4.7142 49.4271 4.10057 48.9838 3.56961 48.4523C3.03096 47.9271 2.58251 47.3179 2.24202 46.6488C1.89779 45.9755 1.65956 45.2537 1.53563 44.5087C1.4018 43.7081 1.32939 42.8987 1.31903 42.0872C1.31079 41.8149 1.29999 40.908 1.29999 40.908V11.0751C1.29999 11.0751 1.31149 10.1822 1.3191 9.91988C1.32902 9.10974 1.40101 8.30152 1.53444 7.50222C1.65859 6.75515 1.89701 6.0313 2.24143 5.35573C2.58066 4.68717 3.02662 4.0775 3.56202 3.55036C4.09683 3.01822 4.71242 2.57265 5.38633 2.22991C6.06377 1.89011 6.78881 1.65331 7.53714 1.52745C8.34396 1.39645 9.15953 1.32563 9.977 1.31557L11.1508 1.2998H144.843L146.031 1.31621C146.841 1.32576 147.649 1.39595 148.448 1.52618C149.204 1.65363 149.937 1.89208 150.622 2.23369C151.972 2.92441 153.071 4.0172 153.764 5.35888C154.103 6.02979 154.337 6.74774 154.46 7.48835C154.595 8.29421 154.67 9.10878 154.686 9.92556C154.69 10.2913 154.69 10.6842 154.69 11.0751C154.7 11.5594 154.7 12.0204 154.7 12.4851V39.5131C154.7 39.9823 154.7 40.4401 154.69 40.9017C154.69 41.3217 154.69 41.7064 154.685 42.1023C154.669 42.9045 154.595 43.7046 154.462 44.496C154.341 45.2464 154.104 45.9738 153.76 46.6527C153.417 47.3145 152.971 47.9184 152.439 48.4422C151.907 48.9766 151.292 49.4225 150.618 49.7627C149.935 50.1063 149.203 50.3456 148.448 50.4728C147.644 50.6032 146.831 50.6736 146.017 50.6834C145.636 50.6922 145.237 50.6972 144.849 50.6972L143.439 50.6998L11.1502 50.6972Z" fill="black"></path>
      <path d="M32.4885 26.9092C32.5027 25.813 32.7947 24.7382 33.3374 23.7847C33.88 22.8313 34.6557 22.0302 35.5923 21.456C34.9973 20.6087 34.2124 19.9114 33.2999 19.4194C32.3874 18.9275 31.3725 18.6545 30.3357 18.6222C28.124 18.3907 25.9799 19.9419 24.8529 19.9419C23.704 19.9419 21.9688 18.6452 20.1003 18.6835C18.8916 18.7224 17.7137 19.0729 16.6813 19.7008C15.6489 20.3287 14.7972 21.2125 14.2092 22.2662C11.662 26.664 13.5619 33.1271 16.0019 36.6819C17.2227 38.4226 18.6495 40.367 20.5163 40.298C22.3432 40.2225 23.0255 39.1364 25.2306 39.1364C27.4153 39.1364 28.0554 40.298 29.9602 40.2542C31.9205 40.2225 33.1556 38.5058 34.3335 36.7486C35.2106 35.5083 35.8856 34.1375 36.3334 32.687C35.1945 32.2067 34.2226 31.4026 33.5389 30.3752C32.8552 29.3477 32.4899 28.1423 32.4885 26.9092Z" fill="white"></path>
      <path d="M28.8906 16.2847C29.9594 15.0052 30.486 13.3606 30.3585 11.7002C28.7256 11.8712 27.2172 12.6495 26.1339 13.8799C25.6043 14.481 25.1986 15.1803 24.9401 15.9378C24.6817 16.6953 24.5755 17.4962 24.6276 18.2946C25.4443 18.303 26.2524 18.1265 26.9908 17.7783C27.7292 17.4302 28.3788 16.9195 28.8906 16.2847Z" fill="white"></path>
      <path d="M55.1475 35.282H48.9768L47.4949 39.6454H44.8812L50.726 23.502H53.4415L59.2863 39.6454H56.6281L55.1475 35.282ZM49.6159 33.2685H54.5071L52.0959 26.187H52.0284L49.6159 33.2685Z" fill="white"></path>
      <path d="M71.909 33.7609C71.909 37.4184 69.9459 39.7683 66.9834 39.7683C66.2329 39.8074 65.4866 39.6351 64.8298 39.2709C64.1731 38.9067 63.6324 38.3654 63.2698 37.7091H63.2137V43.5388H60.791V27.8753H63.1361V29.8329H63.1807C63.56 29.1797 64.1097 28.6413 64.7715 28.2749C65.4333 27.9085 66.1823 27.7278 66.9388 27.7522C69.9344 27.7522 71.909 30.1135 71.909 33.7609ZM69.4188 33.7609C69.4188 31.378 68.1839 29.8114 66.2997 29.8114C64.4487 29.8114 63.2036 31.411 63.2036 33.7609C63.2036 36.1324 64.4487 37.7205 66.2997 37.7205C68.1839 37.7205 69.4188 36.1654 69.4188 33.7609Z" fill="white"></path>
      <path d="M84.8998 33.7609C84.8998 37.4184 82.9367 39.7683 79.9742 39.7683C79.2237 39.8074 78.4774 39.635 77.8206 39.2709C77.1638 38.9067 76.6232 38.3654 76.2606 37.7091H76.2045V43.5388H73.7818V27.8753H76.1268V29.8329H76.1714C76.5507 29.1797 77.1005 28.6413 77.7623 28.2749C78.424 27.9085 79.173 27.7278 79.9296 27.7522C82.9252 27.7522 84.8998 30.1135 84.8998 33.7609ZM82.4096 33.7609C82.4096 31.378 81.1747 29.8113 79.2905 29.8113C77.4394 29.8113 76.1943 31.411 76.1943 33.7609C76.1943 36.1323 77.4394 37.7205 79.2905 37.7205C81.1747 37.7205 82.4096 36.1654 82.4096 33.7609H82.4096Z" fill="white"></path>
      <path d="M93.4855 35.147C93.665 36.7479 95.2246 37.799 97.3557 37.799C99.3978 37.799 100.867 36.7479 100.867 35.3044C100.867 34.0514 99.9808 33.3011 97.8828 32.7869L95.7847 32.2829C92.8121 31.5669 91.432 30.1806 91.432 27.931C91.432 25.1456 93.8662 23.2324 97.3226 23.2324C100.743 23.2324 103.088 25.1456 103.167 27.931H100.722C100.575 26.3199 99.2399 25.3475 97.2882 25.3475C95.3366 25.3475 94.0011 26.3314 94.0011 27.7634C94.0011 28.9047 94.8541 29.5763 96.9407 30.0904L98.7243 30.5271C102.046 31.3104 103.426 32.6409 103.426 35.0022C103.426 38.0224 101.013 39.914 97.1762 39.914C93.5861 39.914 91.1621 38.0669 91.0055 35.1469L93.4855 35.147Z" fill="white"></path>
      <path d="M108.654 25.0898V27.8752H110.899V29.7884H108.654V36.277C108.654 37.285 109.104 37.7547 110.09 37.7547C110.357 37.7501 110.623 37.7314 110.887 37.6988V39.6005C110.444 39.6832 109.993 39.7206 109.542 39.7123C107.152 39.7123 106.22 38.8172 106.22 36.5346V29.7884H104.504V27.8752H106.22V25.0898H108.654Z" fill="white"></path>
      <path d="M112.199 33.7607C112.199 30.0575 114.386 27.7305 117.796 27.7305C121.218 27.7305 123.395 30.0575 123.395 33.7607C123.395 37.4741 121.23 39.791 117.796 39.791C114.364 39.791 112.199 37.4741 112.199 33.7607ZM120.927 33.7607C120.927 31.2204 119.76 29.7211 117.796 29.7211C115.833 29.7211 114.667 31.2318 114.667 33.7607C114.667 36.3112 115.833 37.7991 117.796 37.7991C119.76 37.7991 120.927 36.3112 120.927 33.7607H120.927Z" fill="white"></path>
      <path d="M125.393 27.8752H127.704V29.8785H127.76C127.916 29.2528 128.284 28.6999 128.801 28.3127C129.318 27.9254 129.953 27.7274 130.599 27.752C130.878 27.7511 131.157 27.7813 131.429 27.8422V30.102C131.077 29.9946 130.709 29.9452 130.34 29.956C129.988 29.9417 129.638 30.0036 129.312 30.1374C128.986 30.2711 128.693 30.4736 128.454 30.7308C128.214 30.9881 128.033 31.294 127.922 31.6277C127.812 31.9614 127.776 32.3149 127.816 32.6639V39.645H125.393L125.393 27.8752Z" fill="white"></path>
      <path d="M142.599 36.1881C142.273 38.3247 140.186 39.791 137.517 39.791C134.083 39.791 131.952 37.497 131.952 33.8166C131.952 30.1248 134.095 27.7305 137.415 27.7305C140.68 27.7305 142.734 29.9674 142.734 33.536V34.3638H134.398V34.5098C134.359 34.9429 134.414 35.3793 134.557 35.7899C134.701 36.2005 134.93 36.5759 135.231 36.8912C135.531 37.2065 135.895 37.4545 136.299 37.6187C136.703 37.7829 137.137 37.8595 137.573 37.8435C138.145 37.897 138.72 37.7648 139.211 37.4665C139.702 37.1683 140.083 36.7199 140.298 36.1881L142.599 36.1881ZM134.409 32.6753H140.31C140.332 32.2858 140.272 31.8961 140.136 31.5305C140 31.1649 139.789 30.8314 139.517 30.5509C139.245 30.2704 138.918 30.049 138.556 29.9005C138.195 29.752 137.806 29.6797 137.415 29.6881C137.02 29.6857 136.629 29.7613 136.264 29.9105C135.899 30.0597 135.567 30.2794 135.288 30.5572C135.008 30.8349 134.787 31.1651 134.636 31.5286C134.485 31.8921 134.408 32.2819 134.409 32.6753V32.6753Z" fill="white"></path>
      <path d="M49.3122 11.3496C49.8201 11.3133 50.3298 11.3898 50.8045 11.5737C51.2792 11.7575 51.707 12.0441 52.0571 12.4129C52.4073 12.7816 52.671 13.2232 52.8293 13.7058C52.9875 14.1885 53.0364 14.7001 52.9724 15.2039C52.9724 17.682 51.6293 19.1065 49.3122 19.1065H46.5025V11.3496H49.3122ZM47.7107 18.0095H49.1773C49.5402 18.0312 49.9034 17.9718 50.2405 17.8358C50.5775 17.6998 50.8799 17.4906 51.1256 17.2233C51.3714 16.9561 51.5542 16.6376 51.661 16.291C51.7677 15.9444 51.7955 15.5784 51.7425 15.2197C51.7917 14.8624 51.761 14.4987 51.6526 14.1547C51.5443 13.8106 51.361 13.4947 51.1158 13.2296C50.8706 12.9645 50.5697 12.7567 50.2345 12.6212C49.8994 12.4857 49.5383 12.4258 49.1773 12.4458H47.7107V18.0095Z" fill="white"></path>
      <path d="M54.3371 16.1769C54.3002 15.7922 54.3444 15.4041 54.4667 15.0374C54.589 14.6707 54.7869 14.3336 55.0475 14.0476C55.3082 13.7616 55.6259 13.5331 55.9803 13.3768C56.3347 13.2204 56.7179 13.1396 57.1055 13.1396C57.493 13.1396 57.8763 13.2204 58.2307 13.3768C58.5851 13.5331 58.9028 13.7616 59.1634 14.0476C59.4241 14.3336 59.6219 14.6707 59.7443 15.0374C59.8666 15.4041 59.9107 15.7922 59.8738 16.1769C59.9114 16.562 59.8678 16.9507 59.7458 17.318C59.6238 17.6853 59.4261 18.023 59.1654 18.3096C58.9046 18.5961 58.5867 18.8251 58.2319 18.9818C57.8772 19.1385 57.4935 19.2194 57.1055 19.2194C56.7175 19.2194 56.3338 19.1385 55.979 18.9818C55.6243 18.8251 55.3063 18.5961 55.0456 18.3096C54.7849 18.023 54.5872 17.6853 54.4651 17.318C54.3431 16.9507 54.2995 16.562 54.3371 16.1769ZM58.6822 16.1769C58.6822 14.908 58.1106 14.166 57.1074 14.166C56.1004 14.166 55.5339 14.908 55.5339 16.177C55.5339 17.456 56.1004 18.1923 57.1074 18.1923C58.1106 18.1923 58.6822 17.4509 58.6822 16.1769H58.6822Z" fill="white"></path>
      <path d="M67.2335 19.1067H66.0317L64.8184 14.7954H64.7268L63.5186 19.1067H62.3282L60.7101 13.2529H61.8852L62.9368 17.7197H63.0234L64.2303 13.2529H65.3417L66.5486 17.7197H66.6402L67.6867 13.2529H68.8452L67.2335 19.1067Z" fill="white"></path>
      <path d="M70.2062 13.2525H71.3214V14.1825H71.408C71.5548 13.8485 71.8025 13.5685 72.1166 13.3815C72.4306 13.1946 72.7952 13.11 73.1598 13.1396C73.4454 13.1181 73.7322 13.1611 73.9989 13.2652C74.2656 13.3693 74.5054 13.532 74.7006 13.7411C74.8957 13.9502 75.0412 14.2004 75.1262 14.4731C75.2112 14.7459 75.2335 15.0342 75.1916 15.3168V19.1063H74.0331V15.6069C74.0331 14.6662 73.6232 14.1984 72.7664 14.1984C72.5724 14.1893 72.3789 14.2223 72.1989 14.2948C72.0189 14.3674 71.8568 14.4779 71.7237 14.6188C71.5905 14.7597 71.4895 14.9277 71.4276 15.1112C71.3656 15.2946 71.3441 15.4893 71.3647 15.6818V19.1064H70.2062L70.2062 13.2525Z" fill="white"></path>
      <path d="M77.0376 10.9678H78.1961V19.1067H77.0376V10.9678Z" fill="white"></path>
      <path d="M79.8066 16.177C79.7698 15.7923 79.8139 15.4042 79.9363 15.0375C80.0587 14.6708 80.2565 14.3336 80.5172 14.0476C80.7779 13.7616 81.0956 13.5331 81.45 13.3768C81.8045 13.2204 82.1877 13.1396 82.5753 13.1396C82.9629 13.1396 83.3461 13.2204 83.7006 13.3768C84.055 13.5331 84.3727 13.7616 84.6334 14.0476C84.8941 14.3336 85.092 14.6708 85.2143 15.0375C85.3367 15.4042 85.3808 15.7923 85.344 16.177C85.3815 16.5622 85.3379 16.9508 85.2158 17.3181C85.0938 17.6854 84.896 18.0232 84.6353 18.3097C84.3745 18.5962 84.0566 18.8252 83.7018 18.9819C83.347 19.1386 82.9633 19.2195 82.5753 19.2195C82.1873 19.2195 81.8036 19.1386 81.4488 18.9819C81.094 18.8252 80.7761 18.5962 80.5153 18.3097C80.2546 18.0232 80.0568 17.6854 79.9348 17.3181C79.8127 16.9508 79.7691 16.5622 79.8066 16.177ZM84.1517 16.177C84.1517 14.9082 83.5801 14.1661 82.5769 14.1661C81.5699 14.1661 81.0034 14.9082 81.0034 16.1771C81.0034 17.4561 81.5699 18.1924 82.5769 18.1924C83.5801 18.1924 84.1517 17.451 84.1517 16.177H84.1517Z" fill="white"></path>
      <path d="M86.5637 17.451C86.5637 16.3973 87.3504 15.7898 88.747 15.7035L90.3371 15.6121V15.1068C90.3371 14.4885 89.9272 14.1394 89.1353 14.1394C88.4886 14.1394 88.0405 14.3762 87.9119 14.79H86.7903C86.9087 13.7846 87.8571 13.1396 89.1888 13.1396C90.6605 13.1396 91.4905 13.8702 91.4905 15.1068V19.1064H90.3753V18.2838H90.2836C90.0976 18.5789 89.8363 18.8194 89.5266 18.9809C89.2168 19.1424 88.8696 19.219 88.5204 19.2029C88.274 19.2284 88.0249 19.2022 87.7893 19.1259C87.5536 19.0496 87.3366 18.9249 87.1522 18.7599C86.9679 18.5948 86.8203 18.393 86.7189 18.1676C86.6175 17.9422 86.5646 17.698 86.5637 17.451ZM90.3371 16.9508V16.4614L88.9036 16.5528C88.0952 16.6067 87.7285 16.8809 87.7285 17.397C87.7285 17.9239 88.1868 18.2304 88.8171 18.2304C89.0017 18.2491 89.1883 18.2305 89.3656 18.1758C89.5429 18.1211 89.7073 18.0313 89.8491 17.9119C89.991 17.7926 90.1072 17.6459 90.1911 17.4808C90.2749 17.3157 90.3246 17.1354 90.3371 16.9508Z" fill="white"></path>
      <path d="M93.0131 16.1773C93.0131 14.3276 93.9666 13.1558 95.4498 13.1558C95.8166 13.139 96.1807 13.2266 96.4995 13.4085C96.8183 13.5903 97.0786 13.8589 97.2499 14.1828H97.3365V10.9678H98.495V19.1067H97.3849V18.1819H97.2932C97.1086 18.5036 96.8393 18.7689 96.5143 18.9489C96.1894 19.1289 95.8212 19.2169 95.4498 19.2032C93.9564 19.2033 93.0131 18.0315 93.0131 16.1773ZM94.2098 16.1773C94.2098 17.4189 94.7967 18.166 95.7783 18.166C96.7547 18.166 97.3582 17.4081 97.3582 16.1824C97.3582 14.9624 96.7484 14.1937 95.7783 14.1937C94.803 14.1937 94.2098 14.9459 94.2098 16.1773H94.2098Z" fill="white"></path>
      <path d="M103.288 16.1769C103.251 15.7922 103.295 15.4041 103.418 15.0374C103.54 14.6707 103.738 14.3336 103.999 14.0476C104.259 13.7616 104.577 13.5331 104.931 13.3768C105.286 13.2204 105.669 13.1396 106.056 13.1396C106.444 13.1396 106.827 13.2204 107.182 13.3768C107.536 13.5331 107.854 13.7616 108.114 14.0476C108.375 14.3336 108.573 14.6707 108.695 15.0374C108.818 15.4041 108.862 15.7922 108.825 16.1769C108.862 16.562 108.819 16.9507 108.697 17.318C108.575 17.6853 108.377 18.023 108.116 18.3096C107.856 18.5961 107.538 18.8251 107.183 18.9818C106.828 19.1385 106.444 19.2194 106.056 19.2194C105.668 19.2194 105.285 19.1385 104.93 18.9818C104.575 18.8251 104.257 18.5961 103.997 18.3096C103.736 18.023 103.538 17.6853 103.416 17.318C103.294 16.9507 103.251 16.562 103.288 16.1769ZM107.633 16.1769C107.633 14.908 107.062 14.166 106.058 14.166C105.051 14.166 104.485 14.908 104.485 16.177C104.485 17.456 105.051 18.1923 106.058 18.1923C107.062 18.1923 107.633 17.4509 107.633 16.1769Z" fill="white"></path>
      <path d="M110.379 13.2525H111.495V14.1825H111.581C111.728 13.8485 111.976 13.5685 112.29 13.3815C112.604 13.1946 112.968 13.11 113.333 13.1396C113.618 13.1181 113.905 13.1611 114.172 13.2652C114.439 13.3693 114.679 13.532 114.874 13.7411C115.069 13.9502 115.214 14.2004 115.299 14.4731C115.384 14.7459 115.407 15.0342 115.365 15.3168V19.1063H114.206V15.6069C114.206 14.6662 113.796 14.1984 112.939 14.1984C112.746 14.1893 112.552 14.2223 112.372 14.2948C112.192 14.3674 112.03 14.4779 111.897 14.6188C111.764 14.7597 111.663 14.9277 111.601 15.1112C111.539 15.2946 111.517 15.4893 111.538 15.6818V19.1064H110.379V13.2525Z" fill="white"></path>
      <path d="M121.911 11.7959V13.28H123.183V14.2531H121.911V17.2631C121.911 17.8763 122.164 18.1448 122.741 18.1448C122.889 18.1444 123.036 18.1354 123.183 18.1182V19.0805C122.975 19.1176 122.764 19.1373 122.553 19.1395C121.264 19.1395 120.751 18.6875 120.751 17.5589V14.253H119.819V13.2799H120.751V11.7959H121.911Z" fill="white"></path>
      <path d="M124.765 10.9678H125.914V14.1937H126.005C126.159 13.8565 126.414 13.575 126.734 13.3873C127.054 13.1997 127.425 13.1151 127.795 13.145C128.079 13.1296 128.363 13.1769 128.627 13.2836C128.891 13.3902 129.128 13.5536 129.321 13.762C129.514 13.9705 129.659 14.2188 129.744 14.4894C129.83 14.76 129.855 15.0461 129.817 15.3273V19.1067H128.657V15.6123C128.657 14.6773 128.221 14.2038 127.402 14.2038C127.203 14.1875 127.003 14.2148 126.815 14.2838C126.628 14.3527 126.458 14.4617 126.317 14.6031C126.176 14.7444 126.068 14.9148 126 15.1021C125.932 15.2895 125.906 15.4894 125.924 15.6879V19.1067H124.765L124.765 10.9678Z" fill="white"></path>
      <path d="M136.572 17.526C136.415 18.061 136.074 18.5238 135.609 18.8333C135.144 19.1429 134.584 19.2796 134.028 19.2195C133.642 19.2297 133.257 19.1558 132.902 19.003C132.547 18.8503 132.229 18.6222 131.971 18.3347C131.713 18.0473 131.521 17.7072 131.408 17.3383C131.295 16.9693 131.264 16.5802 131.317 16.198C131.265 15.8147 131.297 15.4248 131.41 15.0547C131.522 14.6846 131.714 14.343 131.97 14.053C132.227 13.763 132.543 13.5314 132.897 13.3739C133.252 13.2163 133.636 13.1364 134.023 13.1397C135.657 13.1397 136.642 14.2525 136.642 16.0907V16.4939H132.497V16.5586C132.479 16.7734 132.506 16.9897 132.576 17.1934C132.647 17.3972 132.759 17.584 132.907 17.7419C133.054 17.8998 133.233 18.0253 133.431 18.1103C133.63 18.1953 133.844 18.238 134.06 18.2356C134.337 18.2688 134.618 18.219 134.867 18.0926C135.116 17.9663 135.321 17.769 135.457 17.5259L136.572 17.526ZM132.497 15.6395H135.462C135.477 15.443 135.45 15.2456 135.383 15.0601C135.317 14.8746 135.212 14.705 135.076 14.5621C134.94 14.4193 134.776 14.3065 134.593 14.2309C134.411 14.1552 134.214 14.1185 134.017 14.123C133.817 14.1205 133.618 14.158 133.432 14.2333C133.247 14.3087 133.078 14.4203 132.936 14.5616C132.795 14.7029 132.683 14.8711 132.607 15.0562C132.532 15.2413 132.494 15.4396 132.497 15.6395H132.497Z" fill="white"></path>
    </g>
    <defs>
      <clipPath id="clip0">
        <rect width="156" height="52" fill="white"></rect>
      </clipPath>
    </defs>
  </symbol>
  <symbol id="arrow" xmlns="http://www.w3.org/2000/svg" fill="none" viewBox="0 0 20 20">
    <path d="M15.8337 10H4.16699" stroke="currentColor" stroke-width="1.5" stroke-linecap="round" stroke-linejoin="round"></path>
    <path d="M10.0003 15.8346L4.16699 10.0013L10.0003 4.16797" stroke="currentColor" stroke-width="1.5" stroke-linecap="round" stroke-linejoin="round"></path>
  </symbol>
  <symbol fill="none" xmlns="http://www.w3.org/2000/svg" viewBox="0 0 1444 485" id="banner-bg">
    <g stroke="#353f52">
      <path d="m802 1.99999 80 80.00001 80-80z" stroke-linecap="round" stroke-linejoin="round" stroke-width="3"></path>
      <path d="m1122 162 80-80-80-80z" stroke-linecap="round" stroke-linejoin="round" stroke-width="3"></path>
      <path d="m1202 162 80-80-80-80z" stroke-linecap="round" stroke-linejoin="round" stroke-width="3"></path>
      <path d="m962 82 80 80 80-80z" stroke-linecap="round" stroke-linejoin="round" stroke-width="3"></path>
      <path d="m1442 322.641-80-80-80 80z" stroke-linecap="round" stroke-linejoin="round" stroke-width="3"></path>
    </g>
    <path d="m962 242h1.5c0 .828-.672 1.5-1.5 1.5zm0-160v-1.5c.828 0 1.5.6716 1.5 1.5zm-160 160v1.5c-.828 0-1.5-.672-1.5-1.5zm0-160h-1.5c0-.3978.158-.7793.439-1.0607.282-.2813.663-.4393 1.061-.4393zm126.667 126.667h1.5c0 .397-.158.779-.44 1.06-.281.282-.663.44-1.06.44zm0-93.334v-1.5c.397 0 .779.158 1.06.44.282.281.44.662.44 1.06zm-93.334 93.334v1.5c-.828 0-1.5-.672-1.5-1.5zm0-93.334h-1.5c0-.828.672-1.5 1.5-1.5zm125.167 126.667v-160h3v160zm-158.5-1.5h160v3h-160zm1.5-158.5v160h-3v-160zm158.5 1.5h-160v-3h160zm-34.833 125.167v-93.334h3v93.334zm-91.834-1.5h93.334v3h-93.334zm1.5-91.834v93.334h-3v-93.334zm91.834 1.5h-93.334v-3h93.334z" fill="#353f52"></path>
    <path d="m1442 482.641h1.5c0 .828-.67 1.5-1.5 1.5zm0-160v-1.5c.83 0 1.5.671 1.5 1.5zm-160 160v1.5c-.83 0-1.5-.672-1.5-1.5zm0-160h-1.5c0-.398.16-.78.44-1.061s.66-.439 1.06-.439zm126.67 126.666h1.5c0 .398-.16.78-.44 1.061s-.67.439-1.06.439zm0-93.333v-1.5c.39 0 .78.158 1.06.439.28.282.44.663.44 1.061zm-93.34 93.333v1.5c-.83 0-1.5-.671-1.5-1.5zm0-93.333h-1.5c0-.828.67-1.5 1.5-1.5zm125.17 126.667v-160h3v160zm-158.5-1.5h160v3h-160zm1.5-158.5v160h-3v-160zm158.5 1.5h-160v-3h160zm-34.83 125.166v-93.333h3v93.333zm-91.84-1.5h93.34v3h-93.34zm1.5-91.833v93.333h-3v-93.333zm91.84 1.5h-93.34v-3h93.34z" fill="#353f52"></path>
    <g stroke-linecap="round" stroke-linejoin="round" stroke-width="3">
      <g stroke="#353f52">
        <path d="m962 322c0-44.183-35.817-80-80-80s-80 35.817-80 80z"></path>
        <path d="m802 482.641c0-44.183-35.817-80-80-80s-80 35.817-80 80z"></path>
        <path d="m1122 482.641c0-44.183-35.82-80-80-80-44.183 0-80 35.817-80 80z"></path>
        <path d="m1442 242.641c0-44.183-35.82-80-80-80s-80 35.817-80 80z"></path>
        <path d="m1122 82c0-44.1828-35.82-79.99999-80-80-44.183 0-80 35.8172-80 80z"></path>
        <path d="m882 482 80-80-80-80-80 80z"></path>
        <path d="m1202 482.641 80-80-80-80-80 80z"></path>
        <circle r="80" transform="matrix(1 0 0 -1 1202 242.641)"></circle>
        <path d="m162 322 80-80-80-80z"></path>
        <path d="m242 322 80-80-80-80z"></path>
        <path d="m2 1.99999 80 80.00001 80-80z"></path>
        <path d="m642 242.641-80 80-80-80z"></path>
        <path clip-rule="evenodd" d="m322 322v160h-160v-160zm-33.333 33.333v93.334h-93.334v-93.334z" fill-rule="evenodd"></path>
        <path clip-rule="evenodd" d="m642 322.641v160h-160v-160zm-33.333 33.333v93.333h-93.334v-93.333z" fill-rule="evenodd"></path>
        <path d="m162 482c0-44.183-35.817-80-80-80-44.1828 0-80 35.817-80 80z"></path>
        <path d="m482 322.641c0-44.183-35.817-80-80-80s-80 35.817-80 80z"></path>
        <path d="m322 2c0 44.1828 35.817 80 80 80s80-35.8172 80-80c-82 0-110 0-160 0z"></path>
        <path d="m82 242 80-80-80-80-80 80z"></path>
        <path d="m402 482.641 80-80-80-80-80 80z"></path>
        <path d="m562 162 80-80-80-80-80 80z"></path>
        <circle r="80" transform="matrix(1 0 0 -1 82 322)"></circle>
        <circle r="80" transform="matrix(-.00000004 1 1 .00000004 722 322.641)"></circle>
        <path d="m802 82.0006v240.6404"></path>
        <path d="m642 82.0006v240.6404"></path>
        <path d="m402 242.64v-160.0004m56.568 136.5684-113.137-113.137m-23.431 56.569h160m-136.568 56.568 113.137-113.137"></path>
        <path d="m1042 402v-160m56.57 136.569-113.139-113.137m-23.431 56.568h160m-136.568 56.569 113.138-113.137"></path>
      </g>
      <path d="m1122 242-80-80-80 80z" stroke="#144699"></path>
      <path d="m1362 162 80-80-80-80-80 80z" stroke="#144699"></path>
      <path d="m482 162.641 80 80 80-80z" stroke="#144699"></path>
      <path clip-rule="evenodd" d="m322 2v160h-160v-160zm-33.333 33.3333v93.3337h-93.334v-93.3337z" fill-rule="evenodd" stroke="#144699"></path>
      <circle r="80" stroke="#144699" transform="matrix(-.00000004 1 1 .00000004 722 82)"></circle>
    </g>
  </symbol>
  <symbol id="bars" xmlns="http://www.w3.org/2000/svg" fill="none" aria-hidden="true" focusable="false" viewBox="0 0 24 24">
    <path d="M20 18h-6M20 6H10M20 12H4" stroke="currentColor" stroke-width="2" stroke-linecap="round" stroke-linejoin="round"></path>
  </symbol>
  <symbol id="block" xmlns="http://www.w3.org/2000/svg" fill="none" viewBox="0 0 20 20">
    <path d="M0 4C0 1.79086 1.79086 0 4 0H16C18.2091 0 20 1.79086 20 4V16C20 18.2091 18.2091 20 16 20H4C1.79086 20 0 18.2091 0 16V4Z" fill="currentColor"></path>
    <rect width="16" height="16" transform="translate(2 2)" fill="currentColor"></rect>
    <path d="M16.0007 11.332H11.334V15.9987H16.0007V11.332Z" stroke="white" stroke-width="1.5" stroke-linecap="round" stroke-linejoin="round"></path>
    <path d="M8.66667 11.332H4V15.9987H8.66667V11.332Z" stroke="white" stroke-width="1.5" stroke-linecap="round" stroke-linejoin="round"></path>
    <path d="M16.0007 4H11.334V8.66667H16.0007V4Z" stroke="white" stroke-width="1.5" stroke-linecap="round" stroke-linejoin="round"></path>
    <path d="M8.66667 4H4V8.66667H8.66667V4Z" stroke="white" stroke-width="1.5" stroke-linecap="round" stroke-linejoin="round"></path>
  </symbol>
  <symbol id="chevron-down" xmlns="http://www.w3.org/2000/svg" selectable="0" viewBox="0 0 448 512">
    <path fill="#677185" d="M207.029 381.476L12.686 187.132c-9.373-9.373-9.373-24.569 0-33.941l22.667-22.667c9.357-9.357 24.522-9.375 33.901-.04L224 284.505l154.745-154.021c9.379-9.335 24.544-9.317 33.901.04l22.667 22.667c9.373 9.373 9.373 24.569 0 33.941L240.971 381.476c-9.373 9.372-24.569 9.372-33.942 0z"></path>
  </symbol>
  <symbol id="chevron-down-bold" fill="none" xmlns="http://www.w3.org/2000/svg" viewBox="0 0 20 20">
    <path fill-rule="evenodd" clip-rule="evenodd" d="M16.3876 6.1122C16.7595 6.48413 16.7595 7.08714 16.3876 7.45907L10.6733 13.1734C10.3013 13.5453 9.69833 13.5453 9.3264 13.1734L3.61212 7.45907C3.24019 7.08714 3.24019 6.48413 3.61212 6.1122C3.98404 5.74027 4.58706 5.74027 4.95899 6.1122L9.99984 11.153L15.0407 6.1122C15.4126 5.74027 16.0156 5.74027 16.3876 6.1122Z" fill="black" data-darkreader-inline-fill=""></path>
  </symbol>
  <symbol id="copyright" xmlns="http://www.w3.org/2000/svg" fill="none" viewBox="0 0 24 24">
    <path fill-rule="evenodd" clip-rule="evenodd" d="M12 24C18.6274 24 24 18.6274 24 12C24 5.37258 18.6274 -2.34843e-07 12 -5.24537e-07C5.37258 -8.1423e-07 -2.34843e-07 5.37258 -5.24537e-07 12C-8.1423e-07 18.6274 5.37258 24 12 24ZM12.0054 22.6667C6.14984 22.6667 1.33333 18.0272 1.33333 11.9793C1.33333 5.97282 6.14984 1.33333 12.0054 1.33333C17.9043 1.33333 22.6667 5.97282 22.6667 11.9793C22.6667 18.0272 17.9043 22.6667 12.0054 22.6667ZM12.0054 3.11456C7.15644 3.11456 3.17335 6.96699 3.17335 11.9793C3.17335 17.033 7.15644 20.8854 12.0054 20.8854C16.8977 20.8854 20.8375 17.033 20.8375 11.9793C20.8375 6.96699 16.8977 3.11456 12.0054 3.11456ZM11.8214 16.4531C13.5748 16.4531 14.4948 15.7489 14.4948 13.8848L16.8544 13.8848C16.8652 16.8673 14.8845 18.3586 11.8214 18.3586C8.59598 18.3586 6.57196 16.1217 6.57196 12.8492L6.57196 11.1508C6.57196 7.87832 8.59598 5.64142 11.8214 5.64143C14.8845 5.64143 16.8652 7.13269 16.8544 10.1152L14.5273 10.1152C14.5273 8.29256 13.5748 7.54693 11.8214 7.54693C9.89481 7.54693 8.89904 9.03819 8.89904 11.1508L8.89904 12.8492C8.89904 14.9618 9.89481 16.4531 11.8214 16.4531Z" fill="currentColor"></path>
  </symbol>
  <symbol id="ellipsis" xmlns="http://www.w3.org/2000/svg" fill="none" viewBox="0 0 24 25">
    <path d="M19 13.5C19.5523 13.5 20 13.0523 20 12.5C20 11.9477 19.5523 11.5 19 11.5C18.4477 11.5 18 11.9477 18 12.5C18 13.0523 18.4477 13.5 19 13.5Z" stroke="currentColor" stroke-width="2" stroke-linecap="round" stroke-linejoin="round"></path>
    <path d="M12 13.5C12.5523 13.5 13 13.0523 13 12.5C13 11.9477 12.5523 11.5 12 11.5C11.4477 11.5 11 11.9477 11 12.5C11 13.0523 11.4477 13.5 12 13.5Z" stroke="currentColor" stroke-width="2" stroke-linecap="round" stroke-linejoin="round"></path>
    <path d="M5 13.5C5.55228 13.5 6 13.0523 6 12.5C6 11.9477 5.55228 11.5 5 11.5C4.44772 11.5 4 11.9477 4 12.5C4 13.0523 4.44772 13.5 5 13.5Z" stroke="currentColor" stroke-width="2" stroke-linecap="round" stroke-linejoin="round"></path>
  </symbol>
  <symbol xmlns="http://www.w3.org/2000/svg" id="exit-x-icon" fill="none" aria-hidden="true" focusable="false" viewBox="0 0 32 32">
    <path d="M24 8 8 24M8 8l16 16" stroke="currentColor" stroke-width="2" stroke-linecap="round" stroke-linejoin="round" data-darkreader-inline-stroke=""></path>
  </symbol>
  <symbol id="globe" xmlns="http://www.w3.org/2000/svg" fill="none" viewBox="0 0 24 24">
    <path d="M24 12C24 9.62663 23.2962 7.30655 21.9776 5.33316C20.6591 3.35977 18.7849 1.8217 16.5922 0.913451C14.3995 0.00519943 11.9867 -0.232441 9.65892 0.230582C7.33115 0.693605 5.19295 1.83649 3.51472 3.51472C1.83649 5.19295 0.693605 7.33115 0.230582 9.65892C-0.232441 11.9867 0.00519943 14.3995 0.913451 16.5922C1.8217 18.7849 3.35977 20.6591 5.33316 21.9776C7.30655 23.2962 9.62663 24 12 24C12.021 24 12.041 24 12.062 24C12.083 24 12.104 24 12.125 24C15.2734 23.9966 18.2918 22.7443 20.5181 20.5181C22.7443 18.2918 23.9966 15.2734 24 12.125C24 12.104 24 12.083 24 12.062C24 12.041 24 12.021 24 12ZM22 12C21.9997 12.8898 21.8789 13.7756 21.641 14.633C21.622 14.702 21.5884 14.7661 21.5425 14.8211C21.4966 14.876 21.4394 14.9204 21.3748 14.9513C21.3103 14.9822 21.2398 14.9989 21.1683 15.0002C21.0967 15.0015 21.0257 14.9875 20.96 14.959C20.3425 14.6917 19.8156 14.2513 19.443 13.691L17.225 10.363C16.9967 10.0206 16.6874 9.7399 16.3245 9.54574C15.9617 9.35158 15.5565 9.25 15.145 9.25001H14.712C13.9827 9.25001 13.2832 8.96027 12.7675 8.44455C12.2517 7.92882 11.962 7.22935 11.962 6.50001C11.962 5.77066 12.2517 5.07119 12.7675 4.55546C13.2832 4.03974 13.9827 3.75001 14.712 3.75001H17.484C17.5875 3.75001 17.6885 3.78216 17.773 3.84201C19.0788 4.76451 20.1442 5.98685 20.8797 7.40639C21.6152 8.82593 21.9994 10.4012 22 12ZM2.17901 10.155C2.20209 10.0419 2.2636 9.94027 2.3531 9.86736C2.4426 9.79445 2.55457 9.75475 2.67001 9.75501H7.00701C7.46683 9.75371 7.92235 9.84364 8.34718 10.0196C8.77202 10.1955 9.15773 10.454 9.48201 10.78L10.6 11.9C11.231 12.5314 11.597 13.38 11.623 14.2722C11.649 15.1645 11.3332 16.033 10.74 16.7L9.38101 18.229C8.97415 18.687 8.74961 19.2784 8.75001 19.891V20.718C8.74996 20.801 8.72926 20.8827 8.68976 20.9557C8.65026 21.0287 8.59321 21.0907 8.52376 21.1361C8.4543 21.1816 8.37463 21.209 8.29192 21.216C8.20922 21.2229 8.12608 21.2092 8.05001 21.176C6.25563 20.4045 4.72648 19.1244 3.65133 17.4937C2.57618 15.863 2.00212 13.9532 2.00001 12C2.00103 11.3807 2.06097 10.7629 2.17901 10.155Z" fill="currentColor"></path>
  </symbol>
  <symbol fill="none" xmlns="http://www.w3.org/2000/svg" viewBox="0 0 16 16" id="icon-chevron-right">
    <path d="m6 12 4-4-4-4" stroke="#828b9f" stroke-linecap="round" stroke-linejoin="round" stroke-width="2"></path>
  </symbol>
  <symbol id="institution" fill="none" xmlns="http://www.w3.org/2000/svg" viewBox="0 0 32 32">
    <g stroke="#677185" stroke-linecap="round" stroke-linejoin="round" stroke-width="2" data-darkreader-inline-stroke="">
      <path d="m2.66666 13c-.36818 0-.66666-.2985-.66666-.6667v-2.66663c0-.36819.29848-.66667.66666-.66667h26.66664c.3681 0 .6666.29848.6666.66667v2.66663c0 .3682-.2985.6667-.6666.6667z" fill="#b1b8c7" data-darkreader-inline-fill=""></path>
      <path d="m27.9999 8.99998c0-3.99999-5.9999-7.99998-11.9999-7.99998-6.00001 0-12 3.99999-12 7.99998"></path>
      <path d="m3 27c-.55228 0-1-.4477-1-1v-2c0-.5523.44772-1 1-1h25.9999c.5523 0 1 .4477 1 1v2c0 .5523-.4477 1-1 1z" fill="#b1b8c7" data-darkreader-inline-fill=""></path>
      <path d="m2 31h27.9999"></path>
      <path d="m4 13v10"></path>
      <path d="m8 13v10"></path>
      <path d="m12 13v10"></path>
      <path d="m20 13v10"></path>
      <path d="m28 13v10"></path>
      <path d="m24 13v10"></path>
    </g>
  </symbol>
  <symbol id="list-exchange" fill="none" xmlns="http://www.w3.org/2000/svg" viewBox="0 0 32 32">
    <path d="m12.5 13-.53-.848.53.848zM2 23H1v3l1.8-2.4L2 23zm11.227-10.455.531.847-.531-.847zm.997-.624.528.849.786-.489-.427-.821-.887.46zm3.47-1.984-.846.532.475.756.805-.387-.433-.9zM30 11.5l-.468.884L31 13.16v-1.66h-1zm-.327-7.862.891-.454-.891.454zm-1.311-1.311-.454.891.454-.891zm-24.724 0 .454.891-.454-.891zM2.327 3.638l.891.454-.891-.454zm9.643 8.514C7.827 14.742 3.241 19.68 1.2 22.4l1.6 1.2c1.959-2.612 6.373-7.34 10.23-9.752l-1.06-1.696zm.726-.454-.726.454 1.06 1.696.728-.456-1.062-1.694zm1-.626c-.323.201-.657.41-1 .626l1.062 1.694.995-.622-1.057-1.698zm1.415.388A.991.991 0 0 1 15 11h-2c0 .496.121.967.337 1.382l1.774-.922zM15 11a1 1 0 0 1 1-1V8a3 3 0 0 0-3 3h2zm1-1c.356 0 .67.185.848.47l1.693-1.065A2.998 2.998 0 0 0 16 8v2zm14.468.616c-3.012-1.594-5.342-2.478-7.424-2.707-2.127-.234-3.905.224-5.783 1.127l.867 1.802c1.64-.788 3.039-1.123 4.698-.94 1.704.187 3.767.93 6.706 2.486l.936-1.768zM29 6.8v4.7h2V6.8h-2zm-.218-2.708c.08.156.145.38.18.819C29 5.361 29 5.943 29 6.8h2c0-.824 0-1.501-.044-2.052-.046-.562-.145-1.079-.392-1.564l-1.782.908zm-.874-.874a2 2 0 0 1 .874.874l1.782-.908a4 4 0 0 0-1.748-1.748l-.908 1.782zM25.2 3c.857 0 1.439 0 1.889.038.438.035.663.1.819.18l.908-1.782c-.485-.247-1.002-.346-1.564-.392C26.702 1 26.024 1 25.2 1v2zM6.8 3h18.4V1H6.8v2zm-2.708.218c.156-.08.38-.145.819-.18C5.361 3 5.943 3 6.8 3V1c-.824 0-1.501 0-2.052.044-.562.046-1.079.145-1.564.392l.908 1.782zm-.874.874a2 2 0 0 1 .874-.874l-.908-1.782a4 4 0 0 0-1.748 1.748l1.782.908zM3 6.8c0-.857 0-1.439.038-1.889.035-.438.1-.663.18-.819l-1.782-.908c-.247.485-.346 1.002-.392 1.564C1 5.298 1 5.976 1 6.8h2zM3 23V6.8H1V23h2z" fill="#0C6CF2"></path>
    <path fill-rule="evenodd" clip-rule="evenodd" d="M2 23c2-2.667 6.5-7.5 10.5-10l.727-.456.997-.624a2 2 0 1 0 3.47-1.984C21.214 8.246 24.05 8.35 30 11.5v13.7c0 1.68 0 2.52-.327 3.162a3 3 0 0 1-1.311 1.311c-.642.327-1.482.327-3.162.327H6.8c-1.68 0-2.52 0-3.162-.327a3 3 0 0 1-1.311-1.311C2 27.719 2 26.879 2 25.199v-2.2z" fill="#0C6CF2" fill-opacity=".36"></path>
    <path d="m12.5 13-.53-.849.53.848zM2 23l-.8-.6-.2.266v.333h1zm11.227-10.456.531.847-.531-.847zm.997-.624.887-.461-.498-.959-.917.571.528.849zm3.47-1.984-.433-.901-1.01.485.597.948.847-.532zM30 11.5h1v-.602l-.532-.282L30 11.5zm-.327 16.862-.891-.454.891.454zm-1.311 1.311-.454-.891.454.891zm-24.724 0-.454.891.454-.891zm-1.311-1.311.891-.454-.891.454zm9.643-16.21C7.827 14.741 3.241 19.678 1.2 22.4l1.6 1.2c1.959-2.612 6.373-7.34 10.23-9.752l-1.06-1.696zm.726-.454-.726.454 1.06 1.696c.25-.155.492-.308.728-.456l-1.062-1.694zm1-.626c-.323.201-.657.41-1 .626l1.062 1.694.995-.622-1.057-1.698zm2.304.928a1 1 0 0 1-.889-.54l-1.774.922A3 3 0 0 0 16 14v-2zm1-1a1 1 0 0 1-1 1v2a3 3 0 0 0 3-3h-2zm-.152-.53a.99.99 0 0 1 .152.53h2a2.99 2.99 0 0 0-.459-1.595l-1.693 1.064zm13.62.146c-3.012-1.594-5.342-2.478-7.424-2.707-2.126-.234-3.905.224-5.783 1.127l.867 1.803c1.64-.789 3.039-1.124 4.698-.942 1.704.188 3.767.931 6.706 2.487l.936-1.768zM31 25.2v-13.7h-2v13.7h2zm-.436 3.616c.247-.485.346-1.002.392-1.564.045-.55.044-1.228.044-2.052h-2c0 .857 0 1.439-.038 1.889-.035.438-.1.663-.18.819l1.782.908zm-1.748 1.748a4 4 0 0 0 1.748-1.748l-1.782-.908a2 2 0 0 1-.874.874l.908 1.782zm-3.616.436c.824 0 1.501 0 2.052-.044.562-.046 1.079-.145 1.564-.392l-.908-1.782c-.156.08-.38.145-.819.18-.45.037-1.032.038-1.889.038v2zm-18.4 0h18.4v-2H6.8v2zm-3.616-.436c.485.247 1.002.346 1.564.392.55.045 1.228.044 2.052.044v-2c-.857 0-1.439 0-1.889-.037-.438-.036-.663-.101-.819-.181l-.908 1.782zm-1.748-1.748a4 4 0 0 0 1.748 1.748l.908-1.782a2 2 0 0 1-.874-.874l-1.782.908zM1 25.199c0 .824 0 1.501.044 2.052.046.562.145 1.079.392 1.564l1.782-.908c-.08-.156-.145-.38-.18-.819C3 26.638 3 26.056 3 25.199H1zm0-2.2v2.2h2v-2.2H1z" fill="#0C6CF2"></path>
    <path d="M16 16v14m-7-8v8m7-28v4m7 8v16M6.8 30h18.4c1.68 0 2.52 0 3.162-.327a3 3 0 0 0 1.311-1.311C30 27.72 30 26.88 30 25.2V6.8c0-1.68 0-2.52-.327-3.162a3 3 0 0 0-1.311-1.311C27.72 2 26.88 2 25.2 2H6.8c-1.68 0-2.52 0-3.162.327a3 3 0 0 0-1.311 1.311C2 4.28 2 5.12 2 6.8v18.4c0 1.68 0 2.52.327 3.162a3 3 0 0 0 1.311 1.311C4.28 30 5.12 30 6.8 30zM18 11a2 2 0 1 1-4 0 2 2 0 0 1 4 0z" stroke="#0C6CF2" stroke-width="2" stroke-linecap="round"></path>
  </symbol>
  <symbol id="list-explore" fill="none" xmlns="http://www.w3.org/2000/svg" viewBox="0 0 32 32">
    <path fill-rule="evenodd" clip-rule="evenodd" d="M30.49 18.778 26.23 6.532a5.26 5.26 0 0 0-10.23 1.729A5.26 5.26 0 0 0 5.772 6.53L1.509 18.78a7.503 7.503 0 0 1 14.475 3.218L16 22l.016-.003a7.5 7.5 0 0 1 14.474-3.22z" fill="#F5A250" fill-opacity=".36"></path>
    <path d="m26.229 6.532-.945.328.945-.328zm4.262 12.246-.932.363a1 1 0 0 0 1.876-.692l-.944.329zM15 8.26a1 1 0 1 0 2 0h-2zM5.77 6.53l.945.33-.944-.33zM1.51 18.78l-.945-.329a1 1 0 0 0 1.877.692l-.932-.363zm14.475 3.218-.998-.066a1 1 0 0 0 .799 1.046l.199-.98zM16 22l-.2.98a.998.998 0 0 0 .399 0l-.2-.98zm.016-.003.199.98a1 1 0 0 0 .799-1.046l-.998.066zM15 22a1 1 0 1 0 2 0h-2zm2-13.74a1 1 0 1 0-2 0h2zm8.284-1.4 4.262 12.246 1.889-.657-4.262-12.246-1.889.657zM21.261 4a4.26 4.26 0 0 1 4.023 2.86l1.89-.657A6.26 6.26 0 0 0 21.26 2v2zM17 8.26A4.26 4.26 0 0 1 21.26 4V2A6.26 6.26 0 0 0 15 8.26h2zM10.74 4A4.26 4.26 0 0 1 15 8.26h2A6.26 6.26 0 0 0 10.74 2v2zM6.714 6.86A4.26 4.26 0 0 1 10.74 4V2a6.26 6.26 0 0 0-5.913 4.203l1.89.657zM2.453 19.108 6.715 6.86l-1.889-.657L.564 18.45l1.89.658zM8.5 13a8.503 8.503 0 0 0-7.923 5.416l1.864.726A6.503 6.503 0 0 1 8.5 15v-2zm8.5 8.5A8.5 8.5 0 0 0 8.5 13v2a6.5 6.5 0 0 1 6.5 6.5h2zm-.018.562c.012-.186.018-.373.018-.562h-2c0 .145-.005.289-.014.431l1.996.131zm-.783-1.042-.016-.003-.398 1.96.016.003.398-1.96zm-.382-.003-.016.003.398 1.96.016-.003-.398-1.96zM15 21.5c0 .189.006.376.018.562l1.996-.13A6.626 6.626 0 0 1 17 21.5h-2zm8.5-8.5a8.5 8.5 0 0 0-8.5 8.5h2a6.5 6.5 0 0 1 6.5-6.5v-2zm7.922 5.415A8.503 8.503 0 0 0 23.5 13v2a6.503 6.503 0 0 1 6.059 4.14l1.863-.726zM17 22V8.26h-2V22h2z" fill="#F5A250"></path>
    <path d="M8.5 29a7.5 7.5 0 0 0 7.5-7.5 7.5 7.5 0 1 0 15 0 7.5 7.5 0 0 0-15 0A7.5 7.5 0 1 0 8.5 29z" fill="#fff"></path>
    <path d="M8.5 17a1 1 0 1 0 0 2v-2zm2.5 4.5a1 1 0 1 0 2 0h-2zM23.5 17a1 1 0 1 0 0 2v-2zm2.5 4.5a1 1 0 1 0 2 0h-2zm-11 0A6.5 6.5 0 0 1 8.5 28v2a8.5 8.5 0 0 0 8.5-8.5h-2zm8.5 6.5a6.5 6.5 0 0 1-6.5-6.5h-2a8.5 8.5 0 0 0 8.5 8.5v-2zm6.5-6.5a6.5 6.5 0 0 1-6.5 6.5v2a8.5 8.5 0 0 0 8.5-8.5h-2zM23.5 15a6.5 6.5 0 0 1 6.5 6.5h2a8.5 8.5 0 0 0-8.5-8.5v2zM17 21.5a6.5 6.5 0 0 1 6.5-6.5v-2a8.5 8.5 0 0 0-8.5 8.5h2zM8.5 15a6.5 6.5 0 0 1 6.5 6.5h2A8.5 8.5 0 0 0 8.5 13v2zM2 21.5A6.5 6.5 0 0 1 8.5 15v-2A8.5 8.5 0 0 0 0 21.5h2zM8.5 28A6.5 6.5 0 0 1 2 21.5H0A8.5 8.5 0 0 0 8.5 30v-2zm0-9a2.5 2.5 0 0 1 2.5 2.5h2A4.5 4.5 0 0 0 8.5 17v2zm15 0a2.5 2.5 0 0 1 2.5 2.5h2a4.5 4.5 0 0 0-4.5-4.5v2z" fill="#F5A250"></path>
  </symbol>
  <symbol id="list-institution" fill="none" xmlns="http://www.w3.org/2000/svg" viewBox="0 0 32 32">
    <path d="M9.35 17.305V26M15.871 17.305V26M22.393 17.305V26" stroke="#121D33" stroke-width="2" stroke-linecap="round" stroke-linejoin="round"></path>
    <path d="M25.101 17.303a9.783 9.783 0 0 0-18.452 0H25.1z" fill="#121D33" fill-opacity=".36" stroke="#121D33" stroke-width="2" stroke-linecap="round" stroke-linejoin="round"></path>
    <path d="M15.871 10.783V1" stroke="#121D33" stroke-width="2" stroke-linecap="round" stroke-linejoin="round"></path>
    <path d="M15.871 5.348c2.174 0 3.261 2.174 6.522 2.174V3.174C19.132 3.174 18.045 1 15.87 1" fill="#121D33" fill-opacity=".36"></path>
    <path d="M15.871 5.348c2.174 0 3.261 2.174 6.522 2.174V3.174C19.132 3.174 18.045 1 15.87 1" stroke="#121D33" stroke-width="2" stroke-linecap="round" stroke-linejoin="round"></path>
    <path fill="#121D33" fill-opacity=".36" stroke="#121D33" stroke-width="2" stroke-linecap="round" stroke-linejoin="round" d="M4.871 26h22v5h-22z"></path>
  </symbol>
  <symbol id="list-pay" fill="none" xmlns="http://www.w3.org/2000/svg" viewBox="0 0 32 32">
    <rect x="0.5" y="10" width="27" height="19" rx="3" transform="rotate(-15 0.5 10)" fill="#06D6A0" fill-opacity="0.36" stroke="#06D6A0" stroke-width="2"></rect>
    <path d="M17.94 22.9267C20.874 22.1405 22.4414 18.476 21.4408 14.7417C20.4402 11.0074 17.2506 8.61754 14.3165 9.40372C11.3824 10.1899 9.81505 13.8544 10.8156 17.5887C11.8162 21.323 15.0059 23.7129 17.94 22.9267Z" fill="white"></path>
    <path d="M21 29.6969C24.866 29.6969 28 26.5629 28 22.6969C28 18.831 24.866 15.6969 21 15.6969C17.134 15.6969 14 18.831 14 22.6969C14 26.5629 17.134 29.6969 21 29.6969Z" fill="white" stroke="#06D6A0" stroke-width="2"></path>
    <path fill-rule="evenodd" clip-rule="evenodd" d="M21.596 18.6508V19.4143C21.4365 19.3937 21.2716 19.3834 21.1011 19.3834C20.8574 19.3834 20.6238 19.4063 20.4 19.452V18.6508H19.5029L19.5029 19.7876C19.0487 20.0462 18.6873 20.4201 18.4188 20.9093C18.1448 21.4084 18.0078 22.0169 18.0078 22.7347C18.0078 23.4504 18.1427 24.0578 18.4124 24.5569C18.6798 25.0518 19.0434 25.4297 19.5029 25.6907L19.5029 26.7992H20.4V26.0195C20.6232 26.0638 20.8568 26.086 21.1011 26.086C21.2736 26.086 21.4386 26.0759 21.596 26.0558V26.7992H22.493V25.7959C22.7556 25.6721 22.9839 25.5182 23.1781 25.3342C23.4202 25.1027 23.6103 24.8468 23.7483 24.5664C23.8885 24.2861 23.9724 24.0015 24 23.7127L22.4072 23.7031C22.3796 23.8603 22.3297 24.0015 22.2575 24.1268C22.1874 24.25 22.0971 24.3551 21.9867 24.4422C21.8784 24.5272 21.752 24.5919 21.6076 24.6365C21.4653 24.6811 21.3071 24.7034 21.1329 24.7034C20.8229 24.7034 20.5542 24.6302 20.327 24.4836C20.1018 24.335 19.9266 24.1151 19.8013 23.8242C19.6781 23.5311 19.6166 23.1679 19.6166 22.7347C19.6166 22.3184 19.6771 21.9638 19.7981 21.6707C19.9213 21.3776 20.0965 21.1536 20.3238 20.9985C20.5531 20.8435 20.826 20.766 21.1425 20.766C21.3209 20.766 21.4833 20.7915 21.6299 20.8424C21.7785 20.8913 21.907 20.9624 22.0153 21.0559C22.1237 21.1493 22.2107 21.2619 22.2766 21.3935C22.3424 21.5252 22.3859 21.6728 22.4072 21.8363H24C23.9618 21.4456 23.863 21.0983 23.7037 20.7946C23.5445 20.4909 23.3374 20.235 23.0825 20.0269C22.9055 19.8809 22.709 19.7594 22.493 19.6625V18.6508H21.596Z" fill="#06D6A0"></path>
  </symbol>
  <symbol id="list-wallet" fill="none" xmlns="http://www.w3.org/2000/svg" viewBox="0 0 32 32">
    <path d="M22 23V12h8v8a3 3 0 0 1-3 3h-5z" fill="#fff" stroke="#7349F2" stroke-width="2" stroke-linecap="round" stroke-linejoin="round"></path>
    <path fill-rule="evenodd" clip-rule="evenodd" d="M2 5.775v15.097a3 3 0 0 0 2.009 2.831l14 4.9A3 3 0 0 0 22 25.772V11.829a3 3 0 0 0-2.051-2.846L4.632 3.877A2 2 0 0 0 2 5.775zM16 20a2 2 0 1 0 0-4 2 2 0 0 0 0 4z" fill="#fff"></path>
    <path fill-rule="evenodd" clip-rule="evenodd" d="M2 5.775v15.097a3 3 0 0 0 2.009 2.831l14 4.9A3 3 0 0 0 22 25.772V11.829a3 3 0 0 0-2.051-2.846L4.632 3.877A2 2 0 0 0 2 5.775zM16 20a2 2 0 1 0 0-4 2 2 0 0 0 0 4z" fill="#5322E5" fill-opacity=".36"></path>
    <path d="M2.241 4.82a2.001 2.001 0 0 1 2.391-.943L19.95 8.983A3 3 0 0 1 22 11.829V12h8V6a3 3 0 0 0-3-3H5a3 3 0 0 0-2.759 1.82z" fill="#fff"></path>
    <path d="M2.241 4.82a2.001 2.001 0 0 1 2.391-.943L19.95 8.983A3 3 0 0 1 22 11.829V12h8V6a3 3 0 0 0-3-3H5a3 3 0 0 0-2.759 1.82z" fill="#5322E5" fill-opacity=".36"></path>
    <path d="M22 11.829v13.943a3 3 0 0 1-3.991 2.831l-14-4.9A3 3 0 0 1 2 20.872V5.775a2 2 0 0 1 2.632-1.898M22 11.83a3 3 0 0 0-2.051-2.846L4.632 3.877M22 11.83V12h8V6a3 3 0 0 0-3-3H5a3 3 0 0 0-2.759 1.82 2.001 2.001 0 0 1 2.391-.943M18 18a2 2 0 1 1-4 0 2 2 0 0 1 4 0z" stroke="#7349F2" stroke-width="2" stroke-linecap="round" stroke-linejoin="round"></path>
  </symbol>
  <symbol id="logo-text" xmlns="http://www.w3.org/2000/svg" fill="none" viewBox="0 0 224 24">
    <g clip-path="url(#a)">
      <path fill-rule="evenodd" clip-rule="evenodd" d="M139.92 3.879a2.028 2.028 0 0 1 1.163-1.954 2.026 2.026 0 1 1 .862 3.859 1.968 1.968 0 0 1-1.853-1.158 1.969 1.969 0 0 1-.172-.747zm.15 3.645h3.735v13.5h-3.735v-13.5zm-99.87-4.5H33v18h7.71c4.035 0 6.195-2.115 6.195-4.98a4.17 4.17 0 0 0-3.96-4.365v-.18a3.84 3.84 0 0 0 3.255-3.87c0-2.685-2.025-4.605-6-4.605zm2.145 5.22c0 1.425-1.215 2.28-2.715 2.28l-2.88.045v-4.5h2.94c1.695 0 2.655.75 2.655 2.175zm.555 7.395c0 1.35-.87 2.235-3 2.235h-3.15v-4.77h3.15a2.626 2.626 0 0 1 3 2.535zm5.85 5.385h3.795l-.06-18H48.75v18zm5.76-6.705c0-4.185 2.55-6.975 6.645-6.975s6.645 2.79 6.645 6.975-2.55 6.96-6.645 6.96-6.645-2.79-6.645-6.96zm9.48-.008c-.002-2.35-.977-4.087-2.82-4.087-1.845 0-2.865 1.74-2.865 4.095 0 2.355.975 4.08 2.865 4.08 1.888 0 2.818-1.736 2.82-4.088zm11.85-6.967c-4.095 0-6.63 2.835-6.63 6.975 0 4.11 2.49 6.96 6.63 6.96 3.555 0 5.82-2.1 6-5.205H78.3a2.4 2.4 0 0 1-2.445 2.25c-1.755 0-2.88-1.545-2.88-4.05s1.14-4.005 2.88-4.005a2.4 2.4 0 0 1 2.445 2.25h3.54c-.12-3.12-2.475-5.175-6-5.175zm7.965-4.32h3.75v9.615h.195l4.335-5.115h4.29l-5.01 5.85 5.265 7.65h-4.38l-3.69-5.445-1.005 1.155v4.29h-3.75v-18zm19.44 4.32c-4.095 0-6.63 2.835-6.63 6.975 0 4.11 2.49 6.96 6.66 6.96 3.57 0 5.82-2.1 6-5.205h-3.525a2.414 2.414 0 0 1-2.46 2.25c-1.755 0-2.88-1.545-2.88-4.05s1.14-4.005 2.88-4.005a2.417 2.417 0 0 1 2.46 2.25h3.495c-.105-3.12-2.475-5.175-6-5.175zm11.715 13.68h-3.735v-18h3.63v6.885h.165a3.985 3.985 0 0 1 4.035-2.565c2.805 0 4.665 1.92 4.665 5.085v8.595h-3.75v-7.935a2.299 2.299 0 0 0-.577-1.882 2.292 2.292 0 0 0-1.823-.743 2.523 2.523 0 0 0-2.485 1.7 2.51 2.51 0 0 0-.125 1.06v7.8zm15.66-7.935c-2.67.255-5.07 1.17-5.07 4.17 0 2.67 1.905 4.02 4.485 4.02a4.141 4.141 0 0 0 3.945-2.13h.105v1.875h3.555v-9.12c0-3.225-2.73-4.575-5.73-4.575-3.24 0-5.355 1.545-5.88 4.005l3.465.285a2.25 2.25 0 0 1 2.4-1.5c1.275 0 1.995.645 1.995 1.755 0 .885-.915.99-3.27 1.215zm3.3 1.605v1.5a2.599 2.599 0 0 1-.891 1.805 2.591 2.591 0 0 1-1.914.625c-1.155 0-1.98-.525-1.98-1.575 0-1.05.87-1.575 2.19-1.755a9.189 9.189 0 0 0 2.595-.6zm12.33 6.33h3.81l-.06-7.8a2.473 2.473 0 0 1 2.55-2.76 2.31 2.31 0 0 1 2.4 2.625v7.935h3.75v-8.595c0-3.15-1.845-5.085-4.665-5.085a4.112 4.112 0 0 0-4.065 2.565h-.15V7.524h-3.57v13.5z" fill="currentColor"></path>
      <path opacity=".6" fill-rule="evenodd" clip-rule="evenodd" d="M199.95 7.524h-3.57l-.015 13.5h3.75v-8.1a2.268 2.268 0 0 1 1.292-2.276 2.26 2.26 0 0 1 .898-.214 1.977 1.977 0 0 1 1.959 1.339c.091.268.124.554.096.836v8.415h3.63v-8.25a2.114 2.114 0 0 1 2.175-2.34 2.01 2.01 0 0 1 2.085 2.25v8.34H216v-9a4.366 4.366 0 0 0-8.25-2.115h-.21a3.57 3.57 0 0 0-3.675-2.565 3.778 3.778 0 0 0-3.75 2.565h-.165V7.524zm-26.25-.18c-4.095 0-6.615 2.835-6.615 6.975 0 4.11 2.475 6.96 6.69 6.96 3.57 0 5.835-2.1 6-5.205h-3.525a2.414 2.414 0 0 1-2.46 2.25c-1.74 0-2.88-1.545-2.88-4.05s1.14-4.005 2.88-4.005a2.417 2.417 0 0 1 2.46 2.25h3.45c-.105-3.12-2.475-5.175-6-5.175zm-11.83 10.315a2.102 2.102 0 0 0 1.48 3.59 2.1 2.1 0 1 0-1.48-3.59zm19.27-3.34c0-4.185 2.55-6.975 6.645-6.975s6.63 2.79 6.63 6.975-2.535 6.96-6.63 6.96-6.645-2.79-6.645-6.96zm9.48-.007c-.002-2.352-.977-4.088-2.82-4.088-1.845 0-2.865 1.74-2.865 4.095 0 2.355.975 4.08 2.865 4.08 1.888 0 2.818-1.736 2.82-4.087z" fill="currentColor"></path>
      <path d="M2.054 8.722.959 9.817a3.12 3.12 0 0 0 0 4.5l8.821 8.909c.21.214.452.391.72.525V12.952l-8.446-4.23z" fill="#3D89F5"></path>
      <path d="m21.947 8.722 1.095 1.095a3.12 3.12 0 0 1 0 4.5l-8.822 8.909c-.21.214-.452.391-.72.525V12.952l8.447-4.23z" fill="#1656B9"></path>
      <path d="M19.828 6.487 14.308.952a3.134 3.134 0 0 0-4.5 0L4.273 6.487l7.755 3.87 7.8-3.87z" fill="#85B5F8"></path>
    </g>
    <defs>
      <clipPath id="a">
        <path fill="#fff" d="M0 0h216v24H0z"></path>
      </clipPath>
    </defs>
  </symbol>
  <symbol id="mobile-wallet" fill="" xmlns="http://www.w3.org/2000/svg" viewBox="0 0 20 36">
    <path opacity="0.36" d="M5 1.25C2.92893 1.25 1.25 2.92893 1.25 5V31C1.25 33.0711 2.92893 34.75 5 34.75H15C17.0711 34.75 18.75 33.0711 18.75 31V5C18.75 2.92893 17.0711 1.25 15 1.25H5Z" fill="#5322E5" stroke="#5322E5" stroke-width="1.5" stroke-linecap="round" stroke-linejoin="round"></path>
    <path opacity="0.9" d="M5 1.25C2.92893 1.25 1.25 2.92893 1.25 5V28C1.25 30.0711 2.92893 31.75 5 31.75H15C17.0711 31.75 18.75 30.0711 18.75 28V5C18.75 2.92893 17.0711 1.25 15 1.25H5Z" fill="white" stroke="currentColor" stroke-width="1.5" stroke-linecap="round" stroke-linejoin="round"></path>
    <rect x="8" y="4" width="4" height="1" rx="0.5" fill="currentColor"></rect>
  </symbol>
  <symbol id="play-store" xmlns="http://www.w3.org/2000/svg" fill="none" viewBox="0 0 156 52">
    <g>
      <path d="M143.577 0.000169H12.4299C11.9518 0.000169 11.4795 0.000169 11.0027 0.002769C10.6036 0.005369 10.2077 0.012922 9.80475 0.019279C8.92936 0.0295513 8.05604 0.106348 7.19236 0.249002C6.3299 0.394761 5.49446 0.669559 4.71428 1.0641C3.93507 1.46198 3.22307 1.97899 2.60413 2.59636C1.98194 3.212 1.4633 3.92359 1.06815 4.70378C0.671901 5.48241 0.397144 6.31679 0.253364 7.17809C0.108217 8.03831 0.0301122 8.90845 0.0197503 9.78069C0.00765242 10.1793 0.00637485 10.5792 0 10.9778V41.0264C0.00637485 41.43 0.00765242 41.821 0.0197503 42.2248C0.0301154 43.097 0.10822 43.9671 0.253364 44.8273C0.396747 45.6891 0.67152 46.524 1.06815 47.3029C1.46312 48.0805 1.98184 48.7893 2.60413 49.4015C3.22072 50.0216 3.93318 50.5389 4.71428 50.9338C5.49445 51.3294 6.3298 51.6058 7.19236 51.7538C8.05619 51.8953 8.92942 51.9722 9.80475 51.9837C10.2077 51.9925 10.6036 51.9976 11.0027 51.9976C11.4795 52.0002 11.9519 52.0002 12.4299 52.0002H143.577C144.046 52.0002 144.522 52.0002 144.99 51.9976C145.388 51.9976 145.795 51.9925 146.192 51.9837C147.066 51.9728 147.937 51.8959 148.799 51.7538C149.665 51.6048 150.503 51.3284 151.287 50.9338C152.067 50.5387 152.779 50.0214 153.395 49.4015C154.016 48.7869 154.536 48.0787 154.936 47.3029C155.329 46.5234 155.602 45.6886 155.743 44.8273C155.888 43.967 155.969 43.0971 155.985 42.2248C155.99 41.821 155.99 41.43 155.99 41.0264C156 40.5541 156 40.0844 156 39.6044V12.3971C156 11.9211 156 11.4488 155.99 10.9778C155.99 10.5792 155.99 10.1793 155.985 9.78064C155.969 8.90832 155.888 8.03838 155.743 7.17804C155.601 6.31724 155.329 5.48292 154.936 4.70373C154.131 3.13992 152.855 1.867 151.287 1.06398C150.503 0.670407 149.665 0.395682 148.799 0.248885C147.938 0.105603 147.066 0.0287791 146.192 0.019097C145.795 0.012753 145.388 0.005135 144.99 0.0026C144.522 0 144.046 0 143.577 0V0.000169Z" fill="#B1B8C7"></path>
      <path d="M11.1502 50.6972C10.7538 50.6972 10.3671 50.6922 9.9738 50.6834C9.15915 50.6729 8.34641 50.6025 7.54223 50.4728C6.79238 50.3446 6.06597 50.1061 5.38697 49.7652C4.7142 49.4271 4.10057 48.9838 3.56961 48.4523C3.03096 47.9271 2.58251 47.3179 2.24202 46.6488C1.89779 45.9755 1.65956 45.2537 1.53563 44.5087C1.4018 43.7081 1.32939 42.8987 1.31903 42.0872C1.31079 41.8149 1.29999 40.908 1.29999 40.908V11.0751C1.29999 11.0751 1.31149 10.1822 1.3191 9.91988C1.32902 9.10974 1.40101 8.30152 1.53444 7.50222C1.65859 6.75515 1.89701 6.0313 2.24143 5.35573C2.58066 4.68717 3.02662 4.0775 3.56202 3.55036C4.09683 3.01822 4.71242 2.57265 5.38633 2.22991C6.06377 1.89011 6.78881 1.65331 7.53714 1.52745C8.34396 1.39645 9.15953 1.32563 9.977 1.31557L11.1508 1.2998H144.843L146.031 1.31621C146.841 1.32576 147.649 1.39595 148.448 1.52618C149.204 1.65363 149.937 1.89208 150.622 2.23369C151.972 2.92441 153.071 4.0172 153.764 5.35888C154.103 6.02979 154.337 6.74774 154.46 7.48835C154.595 8.29421 154.67 9.10878 154.686 9.92556C154.69 10.2913 154.69 10.6842 154.69 11.0751C154.7 11.5594 154.7 12.0204 154.7 12.4851V39.5131C154.7 39.9823 154.7 40.4401 154.69 40.9017C154.69 41.3217 154.69 41.7064 154.685 42.1023C154.669 42.9045 154.595 43.7046 154.462 44.496C154.341 45.2464 154.104 45.9738 153.76 46.6527C153.417 47.3145 152.971 47.9184 152.439 48.4422C151.907 48.9766 151.292 49.4225 150.618 49.7627C149.935 50.1063 149.203 50.3456 148.448 50.4728C147.644 50.6032 146.831 50.6736 146.017 50.6834C145.636 50.6922 145.237 50.6972 144.849 50.6972L143.439 50.6998L11.1502 50.6972Z" fill="black"></path>
      <path d="M55.4918 14.5595C55.4918 15.5995 55.2311 16.5095 54.5792 17.1595C53.797 17.9395 52.8845 18.3295 51.7112 18.3295C50.5379 18.3295 49.6254 17.9395 48.8432 17.1595C48.061 16.3795 47.6699 15.4695 47.6699 14.2995C47.6699 13.1295 48.061 12.2195 48.8432 11.4395C49.6254 10.6595 50.5379 10.2695 51.7112 10.2695C52.2327 10.2695 52.7541 10.3995 53.2756 10.6595C53.797 10.9195 54.1881 11.1795 54.4489 11.5695L53.797 12.2195C53.2756 11.5695 52.6238 11.3095 51.7112 11.3095C50.929 11.3095 50.1468 11.5695 49.6254 12.2195C48.9735 12.7395 48.7128 13.5195 48.7128 14.4295C48.7128 15.3395 48.9735 16.1195 49.6254 16.6395C50.2772 17.1595 50.929 17.5495 51.7112 17.5495C52.6238 17.5495 53.2756 17.2895 53.9274 16.6395C54.3185 16.2495 54.5792 15.7295 54.5792 15.0795H51.7112V14.1695H55.4918C55.4918 14.1695 55.4918 14.4295 55.4918 14.5595Z" fill="white" stroke="white" stroke-width="0.2" stroke-miterlimit="10"></path>
      <path d="M61.4888 11.3094H57.9689V13.7794H61.2281V14.6894H57.9689V17.1594H61.4888V18.1994H56.926V10.3994H61.4888V11.3094Z" fill="white" stroke="white" stroke-width="0.2" stroke-miterlimit="10"></path>
      <path d="M65.7904 18.1994H64.7475V11.3094H62.5313V10.3994H68.0066V11.3094H65.7904V18.1994Z" fill="white" stroke="white" stroke-width="0.2" stroke-miterlimit="10"></path>
      <path d="M71.7874 18.1994V10.3994H72.8303V18.1994H71.7874Z" fill="white" stroke="white" stroke-width="0.2" stroke-miterlimit="10"></path>
      <path d="M77.2628 18.1994H76.2199V11.3094H74.0037V10.3994H79.3487V11.3094H77.1325V18.1994H77.2628Z" fill="white" stroke="white" stroke-width="0.2" stroke-miterlimit="10"></path>
      <path d="M89.6474 17.1595C88.8652 17.9395 87.9527 18.3295 86.7794 18.3295C85.6061 18.3295 84.6936 17.9395 83.9114 17.1595C83.1292 16.3795 82.7381 15.4695 82.7381 14.2995C82.7381 13.1295 83.1292 12.2195 83.9114 11.4395C84.6936 10.6595 85.6061 10.2695 86.7794 10.2695C87.9527 10.2695 88.8652 10.6595 89.6474 11.4395C90.4296 12.2195 90.8207 13.1295 90.8207 14.2995C90.8207 15.4695 90.4296 16.3795 89.6474 17.1595ZM84.6936 16.5095C85.215 17.0295 85.9972 17.4195 86.7794 17.4195C87.5616 17.4195 88.3438 17.1595 88.8652 16.5095C89.3867 15.9895 89.7778 15.2095 89.7778 14.2995C89.7778 13.3895 89.5171 12.6095 88.8652 12.0895C88.3438 11.5695 87.5616 11.1795 86.7794 11.1795C85.9972 11.1795 85.215 11.4395 84.6936 12.0895C84.1721 12.6095 83.781 13.3895 83.781 14.2995C83.781 15.2095 84.0417 15.9895 84.6936 16.5095Z" fill="white" stroke="white" stroke-width="0.2" stroke-miterlimit="10"></path>
      <path d="M92.2547 18.1994V10.3994H93.428L97.2086 16.5094V14.9494V10.3994H98.2515V18.1994H97.2086L93.1673 11.8294V13.3894V18.1994H92.2547Z" fill="white" stroke="white" stroke-width="0.2" stroke-miterlimit="10"></path>
      <path d="M77.0955 29.1716C74.4142 29.1716 72.2915 31.1331 72.2915 33.8575C72.2915 36.4729 74.4142 38.5434 77.0955 38.5434C79.7767 38.5434 81.8994 36.5819 81.8994 33.8575C81.8994 31.0242 79.7767 29.1716 77.0955 29.1716ZM77.0955 36.5819C75.6431 36.5819 74.4142 35.3831 74.4142 33.7485C74.4142 32.1139 75.6431 30.9152 77.0955 30.9152C78.5478 30.9152 79.7767 32.0049 79.7767 33.7485C79.7767 35.3831 78.5478 36.5819 77.0955 36.5819ZM66.7056 29.1716C64.0243 29.1716 61.9016 31.1331 61.9016 33.8575C61.9016 36.4729 64.0243 38.5434 66.7056 38.5434C69.3868 38.5434 71.5095 36.5819 71.5095 33.8575C71.5095 31.0242 69.3868 29.1716 66.7056 29.1716ZM66.7056 36.5819C65.2532 36.5819 64.0243 35.3831 64.0243 33.7485C64.0243 32.1139 65.2532 30.9152 66.7056 30.9152C68.1579 30.9152 69.3868 32.0049 69.3868 33.7485C69.3868 35.3831 68.1579 36.5819 66.7056 36.5819ZM54.3047 30.5883V32.5498H59.1087C58.9969 33.6396 58.5501 34.5113 57.9915 35.0562C57.3211 35.7101 56.204 36.4729 54.3047 36.4729C51.2883 36.4729 49.0539 34.1844 49.0539 31.2421C49.0539 28.2998 51.4 26.0113 54.3047 26.0113C55.8688 26.0113 57.0977 26.6652 57.9915 27.428L59.4438 26.0113C58.2149 24.9216 56.6508 24.0498 54.4164 24.0498C50.3945 24.0498 46.9312 27.319 46.9312 31.2421C46.9312 35.1652 50.3945 38.4344 54.4164 38.4344C56.6508 38.4344 58.2149 37.7806 59.5555 36.3639C60.8962 35.0562 61.343 33.2037 61.343 31.787C61.343 31.3511 61.343 30.9152 61.2313 30.5883H54.3047ZM105.025 32.1139C104.578 31.0242 103.461 29.1716 101.003 29.1716C98.5456 29.1716 96.5346 31.0242 96.5346 33.8575C96.5346 36.4729 98.5456 38.5434 101.227 38.5434C103.35 38.5434 104.69 37.2357 105.137 36.4729L103.573 35.3831C103.014 36.146 102.344 36.6908 101.227 36.6908C100.11 36.6908 99.4393 36.2549 98.8807 35.2742L105.249 32.6588L105.025 32.1139ZM98.5456 33.6396C98.5456 31.896 99.9979 30.9152 101.003 30.9152C101.785 30.9152 102.567 31.3511 102.791 31.896L98.5456 33.6396ZM93.2948 38.1075H95.4174V24.4857H93.2948V38.1075ZM89.9432 30.1524C89.3846 29.6075 88.4908 29.0626 87.3737 29.0626C85.0275 29.0626 82.7932 31.1331 82.7932 33.7485C82.7932 36.3639 84.9158 38.3254 87.3737 38.3254C88.4908 38.3254 89.3846 37.7806 89.8315 37.2357H89.9432V37.8896C89.9432 39.6331 88.9377 40.6139 87.3737 40.6139C86.1447 40.6139 85.251 39.7421 85.0275 38.9793L83.24 39.7421C83.7986 40.9408 85.1393 42.4665 87.4854 42.4665C89.9432 42.4665 91.9541 41.0498 91.9541 37.6716V29.3895H89.9432V30.1524ZM87.4854 36.5819C86.033 36.5819 84.8041 35.3831 84.8041 33.7485C84.8041 32.1139 86.033 30.9152 87.4854 30.9152C88.9377 30.9152 90.0549 32.1139 90.0549 33.7485C90.0549 35.3831 88.9377 36.5819 87.4854 36.5819ZM114.745 24.4857H109.718V38.1075H111.84V32.9857H114.745C117.091 32.9857 119.325 31.3511 119.325 28.7357C119.325 26.1203 117.091 24.4857 114.745 24.4857ZM114.857 31.0242H111.84V26.3383H114.857C116.421 26.3383 117.314 27.646 117.314 28.6267C117.203 29.8254 116.309 31.0242 114.857 31.0242ZM127.704 29.0626C126.14 29.0626 124.576 29.7165 124.018 31.1331L125.917 31.896C126.364 31.1331 127.034 30.9152 127.816 30.9152C128.933 30.9152 129.939 31.569 130.05 32.6588V32.7678C129.715 32.5498 128.822 32.2229 127.928 32.2229C125.917 32.2229 123.906 33.3126 123.906 35.2742C123.906 37.1267 125.582 38.3254 127.369 38.3254C128.822 38.3254 129.492 37.6716 130.05 37.0178H130.162V38.1075H132.173V32.8767C131.95 30.4793 130.05 29.0626 127.704 29.0626ZM127.481 36.5819C126.811 36.5819 125.805 36.2549 125.805 35.3831C125.805 34.2934 127.034 33.9665 128.039 33.9665C128.933 33.9665 129.38 34.1844 129.939 34.4024C129.715 35.7101 128.598 36.5819 127.481 36.5819ZM139.211 29.3895L136.865 35.2742H136.754L134.296 29.3895H132.061L135.748 37.6716L133.625 42.2485H135.748L141.446 29.3895H139.211ZM120.443 38.1075H122.565V24.4857H120.443V38.1075Z" fill="white"></path>
      <path d="M14.8068 13.3359C14.5027 13.6392 14.3 14.1446 14.3 14.7511V37.0909C14.3 37.6974 14.5027 38.2028 14.8068 38.5061L14.9082 38.6071L27.4779 26.0726V25.9715V25.8705L14.8068 13.3359Z" fill="url(#paint0_linear)"></path>
      <path d="M31.6347 30.3188L27.4785 26.1743V25.9721V25.871L31.6347 21.7266L31.736 21.8276L36.7031 24.658C38.1222 25.4667 38.1222 26.7808 36.7031 27.5895L31.6347 30.3188Z" fill="url(#paint1_linear)"></path>
      <path d="M31.7355 30.2172L27.478 25.9717L14.8069 38.6073C15.3138 39.1127 16.0233 39.1127 16.9357 38.7084L31.7355 30.2172Z" fill="url(#paint2_linear)"></path>
      <path d="M31.7355 21.7262L16.9357 13.3362C16.0233 12.8308 15.3138 12.9319 14.8069 13.4373L27.478 25.9718L31.7355 21.7262Z" fill="url(#paint3_linear)"></path>
      <path opacity="0.2" d="M31.6342 30.1162L16.9357 38.4052C16.1248 38.9106 15.4152 38.8095 14.9083 38.4052L14.807 38.5063L14.9083 38.6073C15.4152 39.0117 16.1248 39.1128 16.9357 38.6073L31.6342 30.1162Z" fill="black"></path>
      <path opacity="0.12" d="M14.8071 38.4054C14.503 38.1022 14.4017 37.5967 14.4017 36.9902V37.0913C14.4017 37.6978 14.6044 38.2033 14.9085 38.5065V38.4054H14.8071Z" fill="black"></path>
      <path opacity="0.12" d="M36.7025 27.2858L31.6341 30.1162L31.7354 30.2172L36.7025 27.3869C37.4121 26.9825 37.7162 26.4771 37.7162 25.9717C37.7162 26.4771 37.3107 26.8814 36.7025 27.2858Z" fill="black"></path>
      <path opacity="0.25" d="M16.9358 13.4371L36.7027 24.6575C37.3109 25.0618 37.7164 25.4662 37.7164 25.9716C37.7164 25.4662 37.4123 24.9608 36.7027 24.5564L16.9358 13.336C15.5167 12.5273 14.4016 13.2349 14.4016 14.8523V14.9534C14.4016 13.336 15.5167 12.6284 16.9358 13.4371Z" fill="white"></path>
    </g>
    <defs>
      <linearGradient id="paint0_linear" x1="26.3625" y1="14.5588" x2="9.39816" y2="31.5708" gradientUnits="userSpaceOnUse">
        <stop stop-color="#00A0FF"></stop>
        <stop offset="0.00657445" stop-color="#00A1FF"></stop>
        <stop offset="0.2601" stop-color="#00BEFF"></stop>
        <stop offset="0.5122" stop-color="#00D2FF"></stop>
        <stop offset="0.7604" stop-color="#00DFFF"></stop>
        <stop offset="1" stop-color="#00E3FF"></stop>
      </linearGradient>
      <linearGradient id="paint1_linear" x1="38.5626" y1="25.9735" x2="14.0345" y2="25.9735" gradientUnits="userSpaceOnUse">
        <stop stop-color="#FFE000"></stop>
        <stop offset="0.4087" stop-color="#FFBD00"></stop>
        <stop offset="0.7754" stop-color="#FFA500"></stop>
        <stop offset="1" stop-color="#FF9C00"></stop>
      </linearGradient>
      <linearGradient id="paint2_linear" x1="29.4314" y1="28.2927" x2="6.42626" y2="51.3624" gradientUnits="userSpaceOnUse">
        <stop stop-color="#FF3A44"></stop>
        <stop offset="1" stop-color="#C31162"></stop>
      </linearGradient>
      <linearGradient id="paint3_linear" x1="11.6618" y1="5.93295" x2="21.9346" y2="16.2345" gradientUnits="userSpaceOnUse">
        <stop stop-color="#32A071"></stop>
        <stop offset="0.0685" stop-color="#2DA771"></stop>
        <stop offset="0.4762" stop-color="#15CF74"></stop>
        <stop offset="0.8009" stop-color="#06E775"></stop>
        <stop offset="1" stop-color="#00F076"></stop>
      </linearGradient>
      <clipPath id="clip0">
        <rect width="156" height="52" fill="white"></rect>
      </clipPath>
    </defs>
  </symbol>
  <symbol id="prices-btc" fill="none" xmlns="http://www.w3.org/2000/svg" viewBox="0 0 40 40">
    <rect fill="#f7931a" height="40" rx="20" width="40" y="0"></rect>
    <path d="m28.9863 17.5255c.3925-2.62-1.6038-4.0288-4.3313-4.9688l.885-3.54996-2.16-.5375-.8625 3.45626c-.5675-.1425-1.15-.275-1.7312-.4075l.8687-3.47876-2.16-.53875-.885 3.54871c-.47-.1075-.9325-.2125-1.38-.325l.0025-.0112-2.98-.74376-.575 2.30746s1.6038.3675 1.57.39c.875.2188 1.0325.7975 1.0063 1.2575l-1.0075 4.0438c.06.015.1375.0375.225.0712l-.2288-.0562-1.4125 5.665c-.1075.265-.3787.6637-.9912.5125.0225.0312-1.57-.3913-1.57-.3913l-1.0725 2.4725 2.8125.7013c.5225.1312 1.035.2687 1.5387.3975l-.8937 3.59 2.1587.5375.885-3.55c.59.1587 1.1625.3062 1.7225.4462l-.8825 3.535 2.16.5375.8938-3.5825c3.685.6975 6.455.4163 7.6212-2.9162.94-2.6825-.0462-4.2313-1.985-5.24 1.4125-.325 2.475-1.2538 2.7588-3.1725zm-4.9375 6.9225c-.6663 2.6837-5.185 1.2325-6.65.8687l1.1875-4.7562c1.465.3662 6.1612 1.09 5.4625 3.8875zm.6687-6.9613c-.6087 2.4413-4.3687 1.2-5.5875.8963l1.075-4.3125c1.2188.3037 5.1475.87 4.5125 3.4162z" fill="#fff"></path>
  </symbol>
  <symbol id="prices-eth" fill="none" xmlns="http://www.w3.org/2000/svg" viewBox="0 0 40 40">
    <rect fill="#627eea" height="40" rx="20" width="40" y="0"></rect>
    <g fill="#fff">
      <path d="m20.6226 5.00049v11.08751l9.3712 4.1875z" fill-opacity=".602"></path>
      <path d="m20.6225 5.00049-9.3725 15.27501 9.3725-4.1875z"></path>
      <path d="m20.6226 27.4605v7.5338l9.3775-12.9738z" fill-opacity=".602"></path>
      <path d="m20.6225 34.9943v-7.535l-9.3725-5.4388z"></path>
      <path d="m20.6226 25.7167 9.3712-5.4412-9.3712-4.185z" fill-opacity=".2"></path>
      <path d="m11.25 20.2755 9.3725 5.4412v-9.6262z" fill-opacity=".602"></path>
    </g>
  </symbol>
  <symbol id="prices-sol" fill="none" xmlns="http://www.w3.org/2000/svg" xmlns:xlink="http://www.w3.org/1999/xlink" viewBox="0 0 100 100">
    <linearGradient id="a">
      <stop offset="0" stop-color="#00ffa3"></stop>
      <stop offset="1" stop-color="#dc1fff"></stop>
    </linearGradient>
    <linearGradient id="b" gradientUnits="userSpaceOnUse" x1="75.4635" x2="39.8162" xlink:href="#a" y1="18.9918" y2="85.8843"></linearGradient>
    <linearGradient id="c" gradientUnits="userSpaceOnUse" x1="60.3689" x2="24.7216" xlink:href="#a" y1="10.9478" y2="77.8404"></linearGradient>
    <linearGradient id="d" gradientUnits="userSpaceOnUse" x1="67.8681" x2="32.2208" xlink:href="#a" y1="14.9442" y2="81.8368"></linearGradient>
    <clipPath id="e">
      <path d="m18.75 25h62.5v50h-62.5z"></path>
    </clipPath>
    <path d="m50 100c27.6142 0 50-22.3858 50-50s-22.3858-50-50-50-50 22.3858-50 50 22.3858 50 50 50z" fill="#000"></path>
    <g clip-path="url(#e)">
      <path d="m28.9021 63.1617c.3772-.385.8958-.6096 1.4458-.6096h49.8806c.9115 0 1.3673 1.1229.7229 1.7806l-9.8535 10.0577c-.3772.385-.8958.6096-1.4458.6096h-49.8806c-.9115 0-1.3672-1.1229-.7229-1.7806z" fill="url(#b)"></path>
      <path d="m28.9021 25.6096c.3929-.385.9115-.6096 1.4458-.6096h49.8806c.9115 0 1.3673 1.1229.7229 1.7806l-9.8535 10.0577c-.3772.385-.8958.6096-1.4458.6096h-49.8806c-.9115 0-1.3672-1.1229-.7229-1.7806z" fill="url(#c)"></path>
      <path d="m71.0979 44.2653c-.3772-.385-.8958-.6095-1.4458-.6095h-49.8806c-.9115 0-1.3672 1.1228-.7229 1.7805l9.8535 10.0578c.3772.385.8958.6095 1.4458.6095h49.8806c.9115 0 1.3673-1.1228.7229-1.7805z" fill="url(#d)"></path>
    </g>
  </symbol>
  <symbol id="prices-xlm" fill="none" xmlns="http://www.w3.org/2000/svg" viewBox="0 0 40 40">
    <rect fill="#000" height="40" rx="20" width="40" y="0"></rect>
    <path d="m30.3616 11.1403-3.413 1.7406-16.4932 8.4002c-.235-1.8052.0361-3.6402.7832-5.3003.747-1.66 1.9406-3.0799 3.4476-4.1012 1.5069-1.0213 3.268-1.6039 5.0867-1.6827s3.6236.3492 5.2132 1.2363l1.954-.9954.2915-.1493c-1.8537-1.3452-4.0535-2.13184-6.3398-2.26707-2.2864-.13523-4.5636.38659-6.5629 1.50385-1.9993 1.11722-3.6372 2.78332-4.72019 4.80132-1.08299 2.0181-1.5659 4.3039-1.39169 6.5876.0326.4295-.06262.8591-.27367 1.2347-.21105.3755-.52849.6802-.91235.8757l-1.031.5261v2.4517l3.03471-1.5472.98269-.502.9684-.4935 17.3863-8.8595 1.9539-.994 4.0387-2.0578v-2.45022zm4.0045 2.8612-22.3905 11.3994-1.954.9954-4.02018 2.0521v2.4502l3.99319-2.0336 3.41439-1.7406 16.5103-8.413c.2386 1.808-.0307 3.6467-.7778 5.3103-.747 1.6636-1.9423 3.0864-3.4521 4.1093-1.5098 1.0228-3.2744 1.6053-5.0964 1.6822s-3.6295-.3548-5.2201-1.2468l-.1209.064-2.1189 1.0808c1.854 1.3459 4.0544 2.133 6.3414 2.2683 2.287.1354 4.5649-.3868 6.5647-1.5046 1.9997-1.1179 3.6377-2.7848 4.7204-4.8038s1.5649-4.3057 1.3895-6.5899c-.0322-.4292.063-.8583.2738-1.2335.2107-.3752.5276-.6797.9108-.8755l1.0324-.5262v-2.4431z" fill="#fff"></path>
  </symbol>
  <symbol id="search" xmlns="http://www.w3.org/2000/svg" viewBox="0 0 18 19">
    <path d="m559.179993 45.9010802c0-3.4003115-2.373108-5.56108-5.564608-5.56108-3.191501 0-5.565397 2.1674824-5.565397 5.56108 0 3.3935975 2.090012 5.568921 5.565397 5.568921s5.564608-2.1686096 5.564608-5.568921zm4.820007 9c0 .7572115-.627404 1.3846154-1.384615 1.3846154-.367789 0-.72476-.1514424-.973558-.4110577l-3.710337-3.6995193c-1.265625.876202-2.780048 1.3413462-4.316105 1.3413462-4.207933 0-7.615385-3.4074519-7.615385-7.6153846s3.407452-7.6153846 7.615385-7.6153846c4.207932 0 7.615384 3.4074519 7.615384 7.6153846 0 1.5360577-.465144 3.0504807-1.341346 4.3161057l3.710337 3.7103366c.248798.2487981.40024.6057692.40024.9735577z" fill="currentColor" fill-rule="evenodd" transform="translate(-546 -38)"></path>
  </symbol>
</svg>
